<svg width="374" height="491" viewBox="0 0 374 491" fill="none" xmlns="http://www.w3.org/2000/svg">
<path d="M48 464.338V365.305L143.864 369.736L239.729 374.168V431.584V489L48 464.338Z" fill="#ECAD38"/>
<path d="M48 365.305L148.015 326H194.761H218.134H241.508M48 365.305V464.338L239.729 489M48 365.305L143.864 369.736M239.729 374.168L143.864 369.736M239.729 374.168V431.584V489M239.729 374.168L287.364 350.084L311.182 338.042L335 326M335 326V408.463L239.729 489M335 326H241.508M143.864 369.736L241.508 326" stroke="#ECAD38"/>
<path d="M48 365.305L148.015 326H194.761H218.134H241.508H335L311.182 338.042L287.364 350.084L239.729 374.168L143.864 369.736L48 365.305Z" fill="#DDB772" stroke="#ECAD38"/>
<path d="M334.91 326L239.639 374.168V431.584V489L334.91 408.463V326Z" fill="#CFA14C" stroke="#ECAD38"/>
<path d="M48 464.19V365.156L143.864 369.588L239.729 374.019V431.435V488.851L48 464.19Z" fill="#EEC983"/>
<path d="M148.863 369.709L225.885 326" stroke="#A17E3E"/>
<ellipse cx="38.9674" cy="42.346" rx="38.9674" ry="42.346" transform="matrix(0.995894 0.0905281 -0.0917782 0.99578 105.287 381.547)" fill="white"/>
<rect x="129.607" y="404.313" width="16.5048" height="48.2626" fill="#DD1818"/>
<rect width="16.3916" height="48.5958" transform="matrix(0.0700563 -0.997543 0.99761 0.0690988 113.102 435.234)" fill="#FF0000"/>
<path d="M184.531 350L180.211 179.917M184.531 350L298.089 171.818M184.531 350L66.0364 171.818M184.531 350L16.0463 163.141M184.531 350L365.977 163.141" stroke="black"/>
<path d="M180.211 180.496C130.246 198.635 105.791 196.855 66.6535 171.818C36.7153 179.214 21.5023 166.033 10.7512 159.669C-1.01794 152.703 3.6996 134.416 10.7512 122.697C59.3738 41.8975 122.82 4.31835 187 5.2066C250.251 6.08198 314.232 51.781 363.508 132.327C364.322 133.657 365.132 134.997 365.937 136.346C371.018 144.853 370.705 155.934 363.508 162.744C345.835 179.467 329.067 174.584 297.472 171.818C264.527 196.186 238.745 198.85 180.211 180.496Z" fill="#FAF28F"/>
<path d="M180.211 180.496C130.246 198.635 105.791 196.855 66.6535 171.818M180.211 180.496C238.745 198.85 264.527 196.186 297.472 171.818M180.211 180.496C175.429 110.902 176.465 74.661 187 5.2066M66.6535 171.818C102.469 71.4278 128.277 36.948 187 5.2066M66.6535 171.818C36.7153 179.214 21.5023 166.033 10.7512 159.669V159.669C-1.01794 152.703 3.6996 134.416 10.7512 122.697V122.697C59.3738 41.8975 122.82 4.31835 187 5.2066M297.472 171.818C273.523 87.1954 248.694 53.0151 187 5.2066M297.472 171.818C329.067 174.584 345.835 179.468 363.508 162.744V162.744C370.705 155.934 371.018 144.853 365.937 136.346C365.132 134.997 364.322 133.657 363.508 132.327C314.232 51.781 250.251 6.08198 187 5.2066" stroke="#FFD000" stroke-width="3"/>
<ellipse cx="187" cy="4.6281" rx="20.3663" ry="4.6281" fill="#FFD000"/>
</svg>