<svg width="374" height="576" viewBox="0 0 374 576" fill="none" xmlns="http://www.w3.org/2000/svg">
<path d="M184.531 350L180.211 179.917M184.531 350L298.089 171.818M184.531 350L66.0364 171.818M184.531 350L16.0463 163.141M184.531 350L365.977 163.141" stroke="black"/>
<path d="M180.211 180.496C130.246 198.635 105.791 196.855 66.6535 171.818C36.7153 179.214 21.5023 166.033 10.7512 159.669C-1.01794 152.703 3.6996 134.416 10.7512 122.697C59.3738 41.8975 122.82 4.31835 187 5.2066C250.251 6.08198 314.232 51.781 363.508 132.327C364.322 133.657 365.132 134.997 365.937 136.346C371.018 144.853 370.705 155.934 363.508 162.744C345.835 179.467 329.067 174.584 297.472 171.818C264.527 196.186 238.745 198.85 180.211 180.496Z" fill="#FAF28F"/>
<path d="M180.211 180.496C130.246 198.635 105.791 196.855 66.6535 171.818M180.211 180.496C238.745 198.85 264.527 196.186 297.472 171.818M180.211 180.496C175.429 110.902 176.465 74.661 187 5.2066M66.6535 171.818C102.469 71.4278 128.277 36.948 187 5.2066M66.6535 171.818C36.7153 179.214 21.5023 166.033 10.7512 159.669V159.669C-1.01794 152.703 3.6996 134.416 10.7512 122.697V122.697C59.3738 41.8975 122.82 4.31835 187 5.2066M297.472 171.818C273.523 87.1954 248.694 53.0151 187 5.2066M297.472 171.818C329.067 174.584 345.835 179.468 363.508 162.744V162.744C370.705 155.934 371.018 144.853 365.937 136.346C365.132 134.997 364.322 133.657 363.508 132.327C314.232 51.781 250.251 6.08198 187 5.2066" stroke="#FFD000" stroke-width="3"/>
<ellipse cx="187" cy="4.6281" rx="20.3663" ry="4.6281" fill="#FFD000"/>
<path d="M200.25 569.624L198 568.544L88.1228 515.836L87.7174 515.641C82.833 513.298 82.1704 506.612 86.5 503.355L188 427.021L189.314 426.032C194.689 421.99 201.812 421.123 208 423.756L284.928 456.5L285.84 456.888C290.786 458.993 292.493 465.148 289.338 469.5L220.474 564.5C215.856 570.87 207.344 573.027 200.25 569.624Z" fill="#FFD000"/>
<path d="M219.155 463.227C210.558 459.208 209.759 444.225 211 425L214.5 426.5C210.686 462.451 222.717 467.256 268.5 449.5L273.5 451.5C251.269 459.67 227.553 467.154 219.155 463.227Z" fill="#D3AD07"/>
<path d="M183.102 552.382L89.4702 511.395C87.4417 510.507 85.3487 512.507 86.1436 514.573C86.3725 515.168 86.8206 515.653 87.3959 515.928L198.5 569C206.238 572.274 215.205 570.151 220.653 563.755L223 561L290.17 467.957C290.384 467.66 290.5 467.303 290.5 466.936C290.5 465.291 288.432 464.56 287.398 465.84L225.923 541.934C215.635 554.669 198.099 558.947 183.102 552.382Z" fill="#D3AD07"/>
<path d="M195.5 471.5L163.5 454.5C153.928 468.736 170.17 486.127 185.026 477.548L195.5 471.5Z" stroke="#D3AD07"/>
<path d="M195.25 551.124L193 550.044L83.1228 497.336L82.7174 497.141C77.833 494.798 77.1704 488.112 81.5 484.855L183 408.521L184.314 407.532C189.689 403.49 196.812 402.623 203 405.256L279.928 438L280.84 438.388C285.786 440.493 287.493 446.648 284.338 451L215.474 546C210.856 552.37 202.344 554.527 195.25 551.124Z" fill="#FF0D11"/>
<path d="M214.155 444.727C205.558 440.708 204.759 425.725 206 406.5L209.5 408C205.686 443.951 217.717 448.756 263.5 431L268.5 433C246.269 441.17 222.553 448.654 214.155 444.727Z" fill="#A90202"/>
<path d="M178.102 533.882L84.4702 492.895C82.4417 492.007 80.3487 494.007 81.1436 496.073C81.3725 496.668 81.8206 497.153 82.3959 497.428L193.5 550.5C201.238 553.774 210.205 551.651 215.653 545.255L218 542.5L285.17 449.457C285.384 449.16 285.5 448.803 285.5 448.436C285.5 446.791 283.432 446.06 282.398 447.34L220.923 523.434C210.635 536.169 193.099 540.447 178.102 533.882Z" fill="#A90202"/>
<path d="M190.5 453L158.5 436C148.928 450.236 165.17 467.627 180.026 459.048L190.5 453Z" stroke="#A90202"/>
<path d="M190.25 534.124L188 533.044L78.1228 480.336L77.7174 480.141C72.833 477.798 72.1704 471.112 76.5 467.855L178 391.521L179.314 390.532C184.689 386.49 191.812 385.623 198 388.256L274.928 421L275.84 421.388C280.786 423.493 282.493 429.648 279.338 434L210.474 529C205.856 535.37 197.344 537.527 190.25 534.124Z" fill="#0DBAFF"/>
<path d="M209.155 427.727C200.558 423.708 199.759 408.725 201 389.5L204.5 391C200.686 426.951 212.717 431.756 258.5 414L263.5 416C241.269 424.17 217.553 431.654 209.155 427.727Z" fill="#0998D0"/>
<path d="M173.102 516.882L79.4702 475.895C77.4417 475.007 75.3487 477.007 76.1436 479.073C76.3725 479.668 76.8206 480.153 77.3959 480.428L188.5 533.5C196.238 536.774 205.205 534.651 210.653 528.255L213 525.5L280.17 432.457C280.384 432.16 280.5 431.803 280.5 431.436C280.5 429.791 278.432 429.06 277.398 430.34L215.923 506.434C205.635 519.169 188.099 523.447 173.102 516.882Z" fill="#0998D0"/>
<path d="M185.5 436L153.5 419C143.928 433.236 160.17 450.627 175.026 442.048L185.5 436Z" stroke="#0998D0"/>
<path d="M185.25 518.624L183 517.544L73.1228 464.836L72.7174 464.641C67.833 462.298 67.1704 455.612 71.5 452.355L173 376.021L174.314 375.032C179.689 370.99 186.812 370.123 193 372.756L269.928 405.5L270.84 405.888C275.786 407.993 277.493 414.148 274.338 418.5L205.474 513.5C200.856 519.87 192.344 522.027 185.25 518.624Z" fill="#FFD000"/>
<path d="M204.155 412.227C195.558 408.208 194.759 393.225 196 374L199.5 375.5C195.686 411.451 207.717 416.256 253.5 398.5L258.5 400.5C236.269 408.67 212.553 416.154 204.155 412.227Z" fill="#D3AD07"/>
<path d="M168.102 501.382L74.4702 460.395C72.4417 459.507 70.3487 461.507 71.1436 463.573C71.3725 464.168 71.8206 464.653 72.3959 464.928L183.5 518C191.238 521.274 200.205 519.151 205.653 512.755L208 510L275.17 416.957C275.384 416.66 275.5 416.303 275.5 415.936C275.5 414.291 273.432 413.56 272.398 414.84L210.923 490.934C200.635 503.669 183.099 507.947 168.102 501.382Z" fill="#D3AD07"/>
<path d="M180.5 420.5L148.5 403.5C138.928 417.736 155.17 435.127 170.026 426.548L180.5 420.5Z" stroke="#D3AD07"/>
<path d="M180.25 500.124L178 499.044L68.1228 446.336L67.7174 446.141C62.833 443.798 62.1704 437.112 66.5 433.855L168 357.521L169.314 356.532C174.689 352.49 181.812 351.623 188 354.256L264.928 387L265.84 387.388C270.786 389.493 272.493 395.648 269.338 400L200.474 495C195.856 501.37 187.344 503.527 180.25 500.124Z" fill="#FF0D11"/>
<path d="M199.155 393.727C190.558 389.708 189.759 374.725 191 355.5L194.5 357C190.686 392.951 202.717 397.756 248.5 380L253.5 382C231.269 390.17 207.553 397.654 199.155 393.727Z" fill="#A90202"/>
<path d="M163.102 482.882L69.4702 441.895C67.4417 441.007 65.3487 443.007 66.1436 445.073C66.3725 445.668 66.8206 446.153 67.3959 446.428L178.5 499.5C186.238 502.774 195.205 500.651 200.653 494.255L203 491.5L270.17 398.457C270.384 398.16 270.5 397.803 270.5 397.436C270.5 395.791 268.432 395.06 267.398 396.34L205.923 472.434C195.635 485.169 178.099 489.447 163.102 482.882Z" fill="#A90202"/>
<path d="M175.5 402L143.5 385C133.928 399.236 150.17 416.627 165.026 408.048L175.5 402Z" stroke="#A90202"/>
<path d="M175.25 483.124L173 482.044L63.1228 429.336L62.7174 429.141C57.833 426.798 57.1704 420.112 61.5 416.855L163 340.521L164.314 339.532C169.689 335.49 176.812 334.623 183 337.256L259.928 370L260.84 370.388C265.786 372.493 267.493 378.648 264.338 383L195.474 478C190.856 484.37 182.344 486.527 175.25 483.124Z" fill="#0DBAFF"/>
<path d="M186 338.5L189.5 340C185.686 375.951 197.717 380.756 243.5 363L248.5 365L189.5 397L191.5 379.5L169 383.5L186 338.5Z" fill="#0998D0"/>
<path d="M158.102 465.882L64.4702 424.895C62.4417 424.007 60.3487 426.007 61.1436 428.073C61.3725 428.668 61.8206 429.153 62.3959 429.428L173.5 482.5C181.238 485.774 190.205 483.651 195.653 477.255L198 474.5L265.17 381.457C265.384 381.16 265.5 380.803 265.5 380.436C265.5 378.791 263.432 378.06 262.398 379.34L200.923 455.434C190.635 468.169 173.099 472.447 158.102 465.882Z" fill="#0998D0"/>
<path d="M170.5 385L138.5 368C128.928 382.236 145.17 399.627 160.026 391.048L170.5 385Z" stroke="#0998D0"/>
<path d="M124.5 449.5L191.5 379.5" stroke="#0998D0"/>
<circle cx="172" cy="391" r="2" fill="#D9D9D9"/>
<circle cx="157" cy="406" r="2" fill="#D9D9D9"/>
<circle cx="140" cy="423" r="2" fill="#D9D9D9"/>
<circle cx="123" cy="441" r="2" fill="#D9D9D9"/>
</svg>