<svg width="283" height="306" viewBox="0 0 283 306" fill="none" xmlns="http://www.w3.org/2000/svg">
<path d="M62.6567 278.222C58.3903 269.565 76.3089 208.97 76.3089 208.97L118.972 183L153.956 199.526C153.956 199.526 194.913 263.269 179.554 271.139C164.195 279.009 66.923 286.878 62.6567 278.222Z" fill="#0693DE"/>
<path d="M5.47243 255.803C7.09547 244.096 119 249 124.979 245.975C130.957 242.949 245.129 225.862 244.485 236.147C244.485 236.147 246.221 240.223 247.807 246.087C250.147 254.733 252.161 267.266 247.807 276.345C240.5 291.583 135 276.345 107.5 291.583C80.0001 306.821 85.254 293.664 77.0001 295.12C29.5001 303.5 8.79498 296.002 8.79498 296.002C-1.53466 273.557 2.27199 269.602 5.47243 255.803Z" fill="#EB8965"/>
<path d="M264.5 227C262.816 232.538 259.186 236.696 247.807 246.087L233 234.5L248.5 230C253.076 227.549 258.043 220.575 260.5 216L264.5 227Z" fill="#EB8965"/>
<path d="M18.0707 295H9.91267C3.97683 286.438 2.24288 280.864 3.28427 268.913C5.0959 259.085 6.87707 254.275 11.4423 247L19.6003 249.609C26.9671 256.991 28.7209 262.018 27.7584 272.565C26.7241 285.017 18.0707 295 18.0707 295Z" fill="#CD653F"/>
<path d="M5 268C4.66667 265.833 6.10011 260.7 8.50011 257.5C11.5001 253.5 14.5001 252.5 17.5001 253.5C20.5001 254.5 23.0001 267 23.0001 268C23.0001 269 23.5001 278 21.0001 281.5C18.5001 285 15.5001 287.5 13.0001 287.5C10.5001 287.5 6.50011 280.5 6.50011 277.5C6.50011 274.5 6.6811 267.032 8.50011 264C10.0001 261.5 12.5001 258.5 15.0001 257.5C17.5001 256.5 19.5 268 18.5 272.5C18.1089 274.26 16.5001 279.5 13.0001 280.5C9.50008 281.5 10 275.5 10 273.5C10 271.5 11.0001 267 12.0001 267C13.0001 267 15.0001 266.5 15.0001 270" stroke="#EB8965"/>
<rect x="15.7124" y="265" width="5.27693" height="16.1637" rx="2.63846" transform="rotate(16.9501 15.7124 265)" fill="#FFD8B3"/>
<rect x="15.7124" y="265" width="5.27693" height="16.1637" rx="2.63846" transform="rotate(16.9501 15.7124 265)" fill="#FFD8B3"/>
<rect x="19.9952" y="267" width="5.52281" height="17.1342" rx="2.7614" transform="rotate(16.9501 19.9952 267)" fill="#FFD8B3"/>
<rect x="31.5215" y="262" width="5.52281" height="17.1342" rx="2.7614" transform="rotate(8.46236 31.5215 262)" fill="#FFD8B3"/>
<rect x="24.9952" y="267" width="5.52281" height="17.1342" rx="2.7614" transform="rotate(16.9501 24.9952 267)" fill="#FFD8B3"/>
<rect width="5.27693" height="16.1637" rx="2.63846" transform="matrix(-0.512044 0.858959 0.858959 0.512044 236.763 228.389)" fill="#FFD8B3"/>
<rect width="5.27693" height="16.1637" rx="2.63846" transform="matrix(-0.512044 0.858959 0.858959 0.512044 236.763 228.389)" fill="#FFD8B3"/>
<rect width="5.52281" height="17.1342" rx="2.7614" transform="matrix(-0.512044 0.858959 0.858959 0.512044 234.937 232.749)" fill="#FFD8B3"/>
<rect width="5.52281" height="17.1342" rx="2.7614" transform="matrix(-0.633216 0.773975 0.773975 0.633216 223.044 236.798)" fill="#FFD8B3"/>
<rect width="5.52281" height="17.1342" rx="2.7614" transform="matrix(-0.512044 0.858959 0.858959 0.512044 231.236 236.111)" fill="#FFD8B3"/>
<path d="M24 271.249C24 271.249 44.4118 194.385 111 185.749C144.577 181.394 184 197.249 232.5 238.749" stroke="#0693DE" stroke-width="25"/>
<ellipse cx="113.433" cy="180.495" rx="33.4874" ry="16.2803" transform="rotate(-7.89502 113.433 180.495)" fill="#A2C4FE"/>
<ellipse cx="110" cy="155.5" rx="39" ry="35.5" fill="#F2C296"/>
<ellipse cx="22.0025" cy="136.366" rx="8.5" ry="13.5" transform="rotate(-16.6 22.0025 136.366)" fill="#F9CFA8"/>
<ellipse cx="184.741" cy="89.2558" rx="8.5" ry="13.5" transform="rotate(-15.1934 184.741 89.2558)" fill="#F9CFA8"/>
<ellipse cx="105.181" cy="118.252" rx="68.5" ry="82.5" transform="rotate(-97.9501 105.181 118.252)" fill="#FFD8B3"/>
<path d="M139.289 157.428C135.956 150.737 134.958 145.946 135.001 138.595C135.009 137.284 135.692 136.065 136.808 135.378C145.691 129.911 151.953 128.719 162.585 128.118C163.999 128.038 165.351 128.723 166.106 129.921C169.446 135.22 169.97 137.406 169.999 144.587C170.005 146.069 169.171 147.426 167.866 148.128C158.46 153.194 152.88 157.184 143.472 159.406C141.789 159.804 140.06 158.976 139.289 157.428Z" fill="#F6BE5E" stroke="#F6BE5E" stroke-width="0.5"/>
<path d="M93.8537 168.063C93.7048 160.59 92.3689 155.882 88.9225 149.389C88.3079 148.231 87.1379 147.466 85.8301 147.375C75.4252 146.65 69.3239 148.497 59.6248 152.892C58.3352 153.477 57.454 154.71 57.3405 156.122C56.8381 162.365 57.3868 164.545 60.6903 170.921C61.372 172.237 62.7401 173.053 64.222 173.071C74.9044 173.198 81.6984 174.147 91.064 171.755C92.7398 171.327 93.8882 169.792 93.8537 168.063Z" fill="#F6BE5E" stroke="#F6BE5E" stroke-width="0.5"/>
<path d="M252 212.5C253 214.5 255.141 217.588 258 219.5C260.687 217.629 262.215 216.173 265 212.5C265 212.5 267 209.5 266.5 204.5C266 199.5 263.724 198.582 261 195C259.628 196.46 260 195 256.5 199.5C253 204 251 210.5 252 212.5Z" fill="#33FF00"/>
<path d="M269.5 212.5C266.376 214.425 264.725 216.121 262 220.5L261.5 222C261.5 222 265 222.5 269.5 222.5C274 222.5 273.095 222.55 277 222C279.631 218.911 282.65 217.401 282.5 213.5C277.577 211.926 274.748 211.571 269.5 212.5Z" fill="#33FF00"/>
<path d="M84 291C84.8333 289.333 87.8 286.1 93 286.5C98.2 286.9 104 290 100 293C97.8333 294.333 92.7 296.6 89.5 295C86.3 293.4 87 291 91 290" stroke="#CD653F"/>
<path d="M100 261C130 255 145.5 258.5 149.5 261C149.667 265.667 152.8 271.1 164 255.5" stroke="#CD653F"/>
<path d="M160.5 280.5C180 283 206 278 210 280.5C210.167 285.167 252.5 273.5 246.5 255.5" stroke="#CD653F"/>
<ellipse cx="68.9445" cy="21.9346" rx="19.5" ry="16" transform="rotate(-21.0421 68.9445 21.9346)" fill="#3A3838"/>
<path d="M5 124.971C4.99995 97.0273 11.4138 84.6214 22.5 78.4928C23.3431 60.9905 32.7511 52.9442 44.5 38.9711C64.5 23.4711 78.9519 19.9915 102 22.9712C124.168 25.8371 137.831 30.3193 150.051 45.18C163.663 42.8279 176.029 48.197 191.5 74.0584C186.924 79.305 180.73 80.6632 174 82.4711C170.132 75.0161 167.117 71.3717 160 65.9711C164.393 72.984 165.574 77.1483 165.5 84.9712C159.051 88.6817 151.322 93.0221 143 94.4712C139.13 86.9806 134.831 82.0342 128.5 77.4711L128.627 77.8397C131.184 85.2673 133.221 91.1825 132.5 99.4712C125.639 102.968 118.423 107.443 106 108.971C102.988 98.0872 100.662 92.8726 95.5 84.9712V97.4711L97.5 110.971C89.3817 115.34 80.0836 116.201 69.5 116.971C64.2202 107.108 62.6939 101.64 62 91.9712C58.8889 103.01 59.1934 108.746 62 118.471C56.2786 120.813 50.6708 120.994 40.4598 121.847C39.5923 121.92 38.7693 121.423 38.4445 120.616C34.7329 111.387 33.9978 105.755 35 95.9712L29.5 110.971V123.971C20.0592 125.738 10.4386 127.078 5 124.971Z" fill="#302E2E"/>
<path d="M40.5 13.5C41.5 -0.500041 58 9.49998 58 9.49998L54.5 13.5C46.216 26.619 41.0943 29.4483 31 25.5C31 25.5 39.5 27.5 40.5 13.5Z" fill="#302E2E" stroke="#191919"/>
<path d="M26.5 76C76.1752 70.0849 103.078 63.2591 149.5 45" stroke="#4C4B4B"/>
<circle cx="76" cy="139" r="5" fill="#3F3E3E"/>
<circle cx="136" cy="123" r="5" fill="#3F3E3E"/>
<path d="M78.5 118C79.0009 123.67 74.337 128.218 61.5 138.5C72.1666 126.824 76.6426 122.307 78.5 118Z" fill="#3F3E3E"/>
<path d="M123 106.5C124.593 112.913 132.019 114.372 148 114C134.693 112.614 129.141 111.01 123 106.5Z" fill="#3F3E3E"/>
<path d="M78.5 118C79.0009 123.67 74.337 128.218 61.5 138.5C72.1666 126.824 76.6426 122.307 78.5 118Z" stroke="black"/>
<path d="M123 106.5C124.593 112.913 132.019 114.372 148 114C134.693 112.614 129.141 111.01 123 106.5Z" stroke="black"/>
<path d="M105 158.5C111.354 153.581 115.302 152.628 123 154C115.824 154.009 111.88 155.015 105 158.5Z" fill="black" stroke="black" stroke-width="0.5"/>
</svg>
