<svg width="308" height="573" viewBox="0 0 308 573" fill="none" xmlns="http://www.w3.org/2000/svg">
<path d="M45.821 367.263C70.2886 390.749 92.3755 409.054 92.3755 409.054L77.9233 391.741C73.4936 386.434 70.146 380.311 68.0696 373.718L67.4828 371.854C65.6699 366.098 65.0711 360.027 65.7245 354.027C66.6869 345.189 70.4274 336.927 75.4431 329.587C83.1887 318.252 92.7535 300.583 86.6885 289.238C82.1765 280.798 77.334 275.982 67.8198 273.624C57.1498 270.98 49.0034 273.85 39.3845 280.334C33.9914 283.969 29.663 290.802 26.573 297.082C22.2322 305.903 20.9323 315.907 23.0847 325.5C25.7083 337.192 31.7786 353.784 45.821 367.263Z" fill="#00B3FF"/>
<path d="M241.312 184.087C214.954 193.564 192.296 200.196 192.296 200.196L209.777 192.05C214.602 189.802 219.027 186.78 222.876 183.102L225.234 180.849C228.162 178.052 230.529 174.722 232.21 171.038C235.19 164.504 235.726 157.159 235.128 150.003C234.343 140.622 235 127.754 243.196 122.085C249.665 117.61 254.947 115.623 262.544 116.435C271.063 117.345 275.653 121.286 279.862 127.993C281.566 130.71 282.228 134.396 282.353 138.097C282.688 147.932 278.317 157.287 271.457 164.343C264.898 171.091 254.858 179.216 241.312 184.087Z" fill="#00B3FF"/>
<path d="M183 18.64V13.9711C183 10.3401 185.138 7.04961 188.456 5.57492C190.722 4.56798 193.298 4.51938 195.6 5.44017L196.813 5.92537C200.109 7.24351 202.673 9.92256 203.845 13.2725L204.959 16.454C205.319 17.4829 205.593 18.5399 205.778 19.6141L207.358 28.7789C207.77 31.1651 209.096 33.2968 211.054 34.721C212.644 35.8772 214.559 36.5 216.525 36.5H217.157C221.87 36.5 226.082 39.4374 227.711 43.859L227.787 44.065C228.259 45.3449 228.5 46.6981 228.5 48.0621V54.1166C228.5 57.0321 228.22 59.9409 227.663 62.8028L226.304 69.7936C225.439 74.2439 223.972 78.5558 221.945 82.6108L219.376 87.7473C218.128 90.2447 216.672 92.6331 215.025 94.8875L208 104.5L204.708 108.158C200.93 112.356 197.89 117.163 195.718 122.376L193.922 126.687C192.314 130.547 191.201 134.595 190.609 138.734L189.684 145.214C189.562 146.066 189.575 146.932 189.723 147.78C190.63 152.996 196.168 155.999 201.035 153.914L201.441 153.739C201.813 153.58 202.173 153.394 202.519 153.184L209.763 148.775C212.118 147.341 215.007 147.09 217.574 148.094L218.579 148.487C222.226 149.915 224.203 153.87 223.154 157.644C222.729 159.176 222.792 160.803 223.336 162.298L225.366 167.882C227.395 173.461 231.259 178.186 236.325 181.282L237.5 182L241.132 183.816C244.803 185.651 246.601 189.878 245.376 193.795C245.127 194.594 244.759 195.351 244.285 196.04L240.99 200.832C240.02 202.244 239.5 203.917 239.5 205.631C239.5 209.161 241.69 212.321 244.996 213.561L246.583 214.156C247.193 214.385 247.822 214.559 248.463 214.675L248.993 214.771C254.884 215.843 259.77 219.948 261.841 225.567L262 226L262.634 227.347C264.396 231.091 269.098 232.355 272.5 230L280.452 225.159C282.702 223.79 285.441 223.48 287.94 224.313L288.573 224.524C291.301 225.434 293.311 227.764 293.811 230.596C294.244 233.05 293.484 235.565 291.763 237.368L284 245.5L273.5 257.5L266 266.5L263.529 268.806C260.297 271.822 256.041 273.5 251.62 273.5H251.065C248.721 273.5 246.408 274.046 244.311 275.094L244.097 275.201C241.124 276.688 238.755 279.156 237.391 282.187C235.857 285.595 233.061 288.276 229.59 289.664L228.23 290.208C226.096 291.062 223.819 291.5 221.522 291.5H216.165C214.41 291.5 212.677 291.113 211.089 290.365L209.552 289.642C206.727 288.313 203.412 288.559 200.814 290.29C199.622 291.085 198.64 292.155 197.949 293.411L196.768 295.558C194.655 299.4 193.942 303.856 194.75 308.166L195.13 310.191C195.998 314.823 194.769 319.602 191.773 323.24L191.062 324.104C190.033 325.352 188.741 326.357 187.277 327.046L185.518 327.874C182.76 329.172 181 331.946 181 334.994C181 336.93 181.714 338.798 183.005 340.24L189.5 347.5L199 357L201.521 360.297C204.163 363.751 206.342 367.535 208.004 371.552L210.721 378.118C211.239 379.368 211.604 380.676 211.81 382.013L212.669 387.6C213.174 390.878 215.578 393.542 218.786 394.379L220.792 394.902C223.27 395.549 225 397.787 225 400.349C225 401.734 224.489 403.071 223.566 404.103L219.62 408.513C217.611 410.759 216.5 413.666 216.5 416.679V417.165C216.5 421.104 214.462 424.761 211.114 426.834C207.915 428.815 205.902 432.25 205.739 436.009L205.712 436.621C205.576 439.759 206.623 442.833 208.646 445.236L212.17 449.42C213.055 450.472 214.021 451.453 215.058 452.355L222.11 458.487C224.027 460.154 225.703 462.081 227.088 464.212C229.967 468.642 231.5 473.812 231.5 479.096V481.341C231.5 483.774 231.754 486.2 232.259 488.579L234.222 497.831C234.74 500.274 235.44 502.674 236.317 505.012L241 517.5L242.902 524.158C244.273 528.957 244.273 534.043 242.902 538.842C241.655 543.208 239.315 547.185 236.103 550.397L233.217 553.284C230.757 555.743 228.739 558.607 227.25 561.75L225.895 564.611C225.303 565.861 224.5 567 223.522 567.978L220.756 570.744C219.364 572.136 217.326 572.664 215.432 572.124C213.105 571.458 211.5 569.331 211.5 566.91V565.121C211.5 564.052 211.72 562.994 212.146 562.013L216.5 552L217.176 549.567C218.386 545.209 219 540.707 219 536.185V526L216.5 505L211.5 486L203.5 467L196.5 451L189.5 428L184.5 402.5L179.457 383.703C179.154 382.573 178.692 381.492 178.086 380.492L172.288 370.925C170.684 368.278 166.943 368.014 164.983 370.41C164.663 370.8 164.412 371.242 164.239 371.717L162.042 377.759C161.022 380.565 159.523 383.173 157.611 385.467C154.595 389.086 150.645 391.812 146.191 393.348L145.063 393.737C140.744 395.226 136.821 397.679 133.591 400.909L129.5 405L126.099 408.174C123.465 410.633 119.996 412 116.393 412C112.62 412 109.001 410.501 106.333 407.833L105.819 407.319C104.296 405.796 103.172 403.923 102.545 401.863L100.677 395.724C100.267 394.377 99.0876 393.409 97.6868 393.269C96.1049 393.111 94.6161 394.042 94.0665 395.534L92.3842 400.1C91.8529 401.542 90.4791 402.5 88.9424 402.5C87.2232 402.5 85.7347 401.306 85.3617 399.628L84.6425 396.391C84.2286 394.529 84.5118 392.579 85.4385 390.911L90.2989 382.162C91.0986 380.723 91.7931 379.227 92.3771 377.688L94.4501 372.222C96.136 367.778 97 363.064 97 358.31C97 353.154 95.9835 348.048 94.0086 343.285L90.5663 334.984C89.1928 331.671 88.1796 328.22 87.5443 324.69L85.5367 313.537C84.5212 307.896 82.458 302.494 79.4537 297.612C74.5984 289.722 67.4694 283.486 59.0038 279.724L54 277.5L44.6164 272.473C41.5496 270.83 38.6886 268.829 36.0935 266.512L30.5857 261.594C27.5977 258.926 25.4805 255.422 24.509 251.536L23.6425 248.07C23.2241 246.396 23.3244 244.635 23.9301 243.02L24.3193 241.982C25.3303 239.286 27.9074 237.5 30.7865 237.5C32.2261 237.5 33.6297 237.05 34.8012 236.213L36.7534 234.819C38.6029 233.498 39.1662 230.999 38.0624 229.012C37.6935 228.348 37.5 227.601 37.5 226.842V225.237C37.5 221.384 39.578 217.831 42.9358 215.942L45.5 214.5L46.8455 213.55C51.3319 210.383 54 205.234 54 199.743V198.849C54 197.624 53.8026 196.408 53.4154 195.246C52.2179 191.654 52.8841 187.701 55.1931 184.699L55.821 183.883C56.2729 183.295 56.773 182.747 57.316 182.242L57.9021 181.698C61.3407 178.505 62.7113 173.661 61.4554 169.14C61.1532 168.051 60.7055 167.009 60.1245 166.041L57.9439 162.407C57.022 160.87 56.7716 159.022 57.2511 157.296C58.217 153.819 61.8188 151.783 65.2959 152.749L66.7995 153.167C67.5952 153.388 68.3523 153.729 69.0446 154.179L69.6704 154.586C74.5834 157.779 81.0289 157.274 85.3843 153.354L89.3782 149.76C91.7577 147.618 93.5868 144.935 94.7109 141.938L97.3251 134.966C99.399 129.436 99.8605 123.43 98.6558 117.648L98.2964 115.923C98.0993 114.977 98 114.013 98 113.047V112.667C98 107.648 100.791 103.044 105.241 100.722C107.995 99.285 110.176 96.923 111.4 94.0673C112.123 92.38 112.5 90.5534 112.5 88.7176V84.669C112.5 76.8318 115.385 69.2688 120.605 63.4227C123.504 60.1753 127.038 57.5557 130.988 55.7252L136.876 52.9966C142.557 50.3638 148.744 49 155.005 49H164.922C165.629 49 166.325 48.8225 166.947 48.4837C169.297 47.2015 169.879 44.0846 168.15 42.0405L167.265 40.9947C166.448 40.0296 166 38.8063 166 37.5421V37.1994C166 34.4132 167.836 31.9601 170.508 31.174L174.5 30C179.539 28.5178 183 23.8928 183 18.64Z" fill="#D6D6D6"/>
<path d="M195 15.64V10.9711C195 7.34006 197.138 4.04961 200.456 2.57492C202.722 1.56798 205.298 1.51938 207.6 2.44017L208.813 2.92537C212.109 4.24351 214.673 6.92256 215.845 10.2725L216.959 13.454C217.319 14.4829 217.593 15.5399 217.778 16.6141L219.358 25.7789C219.77 28.1651 221.096 30.2968 223.054 31.721C224.644 32.8772 226.559 33.5 228.525 33.5H229.157C233.87 33.5 238.082 36.4374 239.711 40.859L239.787 41.065C240.259 42.3449 240.5 43.6981 240.5 45.0621V51.1166C240.5 54.0321 240.22 56.9409 239.663 59.8028L238.304 66.7936C237.439 71.2439 235.972 75.5558 233.945 79.6108L231.376 84.7473C230.128 87.2447 228.672 89.6331 227.025 91.8875L220 101.5L216.708 105.158C212.93 109.356 209.89 114.163 207.718 119.376L205.922 123.687C204.314 127.547 203.201 131.595 202.609 135.734L201.684 142.214C201.562 143.066 201.575 143.932 201.723 144.78C202.63 149.996 208.168 152.999 213.035 150.914L213.441 150.739C213.813 150.58 214.173 150.394 214.519 150.184L221.763 145.775C224.118 144.341 227.007 144.09 229.574 145.094L230.579 145.487C234.226 146.915 236.203 150.87 235.154 154.644C234.729 156.176 234.792 157.803 235.336 159.298L237.366 164.882C239.395 170.461 243.259 175.186 248.325 178.282L249.5 179L253.132 180.816C256.803 182.651 258.601 186.878 257.376 190.795C257.127 191.594 256.759 192.351 256.285 193.04L252.99 197.832C252.02 199.244 251.5 200.917 251.5 202.631C251.5 206.161 253.69 209.321 256.996 210.561L258.583 211.156C259.193 211.385 259.822 211.559 260.463 211.675L260.993 211.771C266.884 212.843 271.77 216.948 273.841 222.567L274 223L274.634 224.347C276.396 228.091 281.098 229.355 284.5 227L292.452 222.159C294.702 220.79 297.441 220.48 299.94 221.313L300.573 221.524C303.301 222.434 305.311 224.764 305.811 227.596C306.244 230.05 305.484 232.565 303.763 234.368L296 242.5L285.5 254.5L278 263.5L275.529 265.806C272.297 268.822 268.041 270.5 263.62 270.5H263.065C260.721 270.5 258.408 271.046 256.311 272.094L256.097 272.201C253.124 273.688 250.755 276.156 249.391 279.187C247.857 282.595 245.061 285.276 241.59 286.664L240.23 287.208C238.096 288.062 235.819 288.5 233.522 288.5H228.165C226.41 288.5 224.677 288.113 223.089 287.365L221.552 286.642C218.727 285.313 215.412 285.559 212.814 287.29C211.622 288.085 210.64 289.155 209.949 290.411L208.768 292.558C206.655 296.4 205.942 300.856 206.75 305.166L207.13 307.191C207.998 311.823 206.769 316.602 203.773 320.24L203.062 321.104C202.033 322.352 200.741 323.357 199.277 324.046L197.518 324.874C194.76 326.172 193 328.946 193 331.994C193 333.93 193.714 335.798 195.005 337.24L201.5 344.5L211 354L213.521 357.297C216.163 360.751 218.342 364.535 220.004 368.552L222.721 375.118C223.239 376.368 223.604 377.676 223.81 379.013L224.669 384.6C225.174 387.878 227.578 390.542 230.786 391.379L232.792 391.902C235.27 392.549 237 394.787 237 397.349C237 398.734 236.489 400.071 235.566 401.103L231.62 405.513C229.611 407.759 228.5 410.666 228.5 413.679V414.165C228.5 418.104 226.462 421.761 223.114 423.834C219.915 425.815 217.902 429.25 217.739 433.009L217.712 433.621C217.576 436.759 218.623 439.833 220.646 442.236L224.17 446.42C225.055 447.472 226.021 448.453 227.058 449.355L234.11 455.487C236.027 457.154 237.703 459.081 239.088 461.212C241.967 465.642 243.5 470.812 243.5 476.096V478.341C243.5 480.774 243.754 483.2 244.259 485.579L246.222 494.831C246.74 497.274 247.44 499.674 248.317 502.012L253 514.5L254.902 521.158C256.273 525.957 256.273 531.043 254.902 535.842C253.655 540.208 251.315 544.185 248.103 547.397L245.217 550.284C242.757 552.743 240.739 555.607 239.25 558.75L237.895 561.611C237.303 562.861 236.5 564 235.522 564.978L232.756 567.744C231.364 569.136 229.326 569.664 227.432 569.124C225.105 568.458 223.5 566.331 223.5 563.91V562.121C223.5 561.052 223.72 559.994 224.146 559.013L228.5 549L229.176 546.567C230.386 542.209 231 537.707 231 533.185V523L228.5 502L223.5 483L215.5 464L208.5 448L201.5 425L196.5 399.5L191.457 380.703C191.154 379.573 190.692 378.492 190.086 377.492L184.288 367.925C182.684 365.278 178.943 365.014 176.983 367.41C176.663 367.8 176.412 368.242 176.239 368.717L174.042 374.759C173.022 377.565 171.523 380.173 169.611 382.467C166.595 386.086 162.645 388.812 158.191 390.348L157.063 390.737C152.744 392.226 148.821 394.679 145.591 397.909L141.5 402L138.099 405.174C135.465 407.633 131.996 409 128.393 409C124.62 409 121.001 407.501 118.333 404.833L117.819 404.319C116.296 402.796 115.172 400.923 114.545 398.863L112.677 392.724C112.267 391.377 111.088 390.409 109.687 390.269C108.105 390.111 106.616 391.042 106.067 392.534L104.384 397.1C103.853 398.542 102.479 399.5 100.942 399.5C99.2232 399.5 97.7347 398.306 97.3617 396.628L96.6425 393.391C96.2286 391.529 96.5118 389.579 97.4385 387.911L102.299 379.162C103.099 377.723 103.793 376.227 104.377 374.688L106.45 369.222C108.136 364.778 109 360.064 109 355.31C109 350.154 107.983 345.048 106.009 340.285L102.566 331.984C101.193 328.671 100.18 325.22 99.5443 321.69L97.5367 310.537C96.5212 304.896 94.458 299.494 91.4537 294.612C86.5984 286.722 79.4694 280.486 71.0038 276.724L66 274.5L56.6164 269.473C53.5496 267.83 50.6886 265.829 48.0935 263.512L42.5857 258.594C39.5977 255.926 37.4805 252.422 36.509 248.536L35.6425 245.07C35.2241 243.396 35.3244 241.635 35.9301 240.02L36.3193 238.982C37.3303 236.286 39.9074 234.5 42.7865 234.5C44.2261 234.5 45.6297 234.05 46.8012 233.213L48.7534 231.819C50.6029 230.498 51.1662 227.999 50.0624 226.012C49.6935 225.348 49.5 224.601 49.5 223.842V222.237C49.5 218.384 51.578 214.831 54.9358 212.942L57.5 211.5L58.8455 210.55C63.3319 207.383 66 202.234 66 196.743V195.849C66 194.624 65.8026 193.408 65.4154 192.246C64.2179 188.654 64.8841 184.701 67.1931 181.699L67.821 180.883C68.2729 180.295 68.773 179.747 69.316 179.242L69.9021 178.698C73.3407 175.505 74.7113 170.661 73.4554 166.14C73.1532 165.051 72.7055 164.009 72.1245 163.041L69.9439 159.407C69.022 157.87 68.7716 156.022 69.2511 154.296C70.217 150.819 73.8188 148.783 77.2959 149.749L78.7995 150.167C79.5952 150.388 80.3523 150.729 81.0446 151.179L81.6704 151.586C86.5834 154.779 93.0289 154.274 97.3843 150.354L101.378 146.76C103.758 144.618 105.587 141.935 106.711 138.938L109.325 131.966C111.399 126.436 111.86 120.43 110.656 114.648L110.296 112.923C110.099 111.977 110 111.013 110 110.047V109.667C110 104.648 112.791 100.044 117.241 97.7222C119.995 96.285 122.176 93.923 123.4 91.0673C124.123 89.38 124.5 87.5534 124.5 85.7176V81.669C124.5 73.8318 127.385 66.2688 132.605 60.4227C135.504 57.1753 139.038 54.5557 142.988 52.7252L148.876 49.9966C154.557 47.3638 160.744 46 167.005 46H176.922C177.629 46 178.325 45.8225 178.947 45.4837C181.297 44.2015 181.879 41.0846 180.15 39.0405L179.265 37.9947C178.448 37.0296 178 35.8063 178 34.5421V34.1994C178 31.4132 179.836 28.9601 182.508 28.174L186.5 27C191.539 25.5178 195 20.8928 195 15.64Z" stroke="black" stroke-width="3"/>
<path d="M240.006 457.797C248.935 443.286 255.789 430.693 255.789 430.693L248.743 440.33C246.904 442.846 244.71 445.083 242.231 446.971L240.213 448.508C238.503 449.81 236.576 450.799 234.522 451.427C230.381 452.694 225.939 452.324 221.708 451.402C216.789 450.33 210.167 449.953 206.111 454.054C202.754 457.448 200.917 460.35 200.265 464.808C199.534 469.808 201.011 472.771 204.043 475.728C210.644 482.166 221.951 476.558 228.971 470.581C232.673 467.428 236.672 463.215 240.006 457.797Z" fill="#00B3FF"/>
<path d="M227.167 76.0287C236.889 92.18 244.258 106.254 244.258 106.254L236.579 95.7522C234.475 92.874 231.92 90.3541 229.013 88.2895L227.161 86.9739C224.975 85.421 222.514 84.2959 219.909 83.6579C215.221 82.5095 210.301 83.0919 205.651 84.3875C199.639 86.0627 191.215 87.2037 186.44 82.5466C182.651 78.8513 180.645 75.6254 180.156 70.5271C179.608 64.8094 181.565 61.2972 185.379 57.69C185.858 57.2369 186.411 56.8381 187.018 56.4872C195.527 51.5698 206.444 55.4486 214.184 61.5034C218.581 64.9423 223.355 69.6957 227.167 76.0287Z" fill="#00B3FF"/>
<path d="M140.143 51.0334C154.876 54.2556 167.107 57.7319 167.107 57.7319L156.832 56.4652C153.969 56.1123 151.067 56.2391 148.246 56.8402L146.608 57.1894C144.431 57.6534 142.363 58.5323 140.519 59.7782C137.309 61.9458 134.984 65.1633 133.242 68.6226C130.919 73.2369 126.915 79.1205 121.518 79.3894C117.286 79.6002 114.308 78.9954 111.077 76.4151C107.454 73.5213 106.491 70.3538 106.494 66.0077C106.5 56.8062 117.361 51.5211 126.498 50.4304C130.515 49.9509 135.186 49.9493 140.143 51.0334Z" fill="#00B3FF"/>
<path d="M152.58 460.216C177.095 457.875 197.616 454.515 197.616 454.515L180.96 454.415C176.104 454.386 171.294 453.478 166.761 451.735L164.798 450.981C161.07 449.547 157.667 447.381 154.791 444.609C150.195 440.181 147.238 434.359 145.344 428.264C142.617 419.492 137.328 407.578 128.408 405.824C121.606 404.487 116.66 404.877 110.89 408.704C104.419 412.996 102.194 418.378 101.285 426.065C100.943 428.959 101.627 432.229 102.73 435.36C106.014 444.678 113.569 451.859 122.725 455.572C130.331 458.656 140.745 461.346 152.58 460.216Z" fill="#00B3FF"/>
<path d="M185.36 476.934C188.325 472.078 190.163 467.959 184.684 472.242C182.699 473.794 181.167 474.39 179.988 474.34C174.491 474.104 169.394 466.742 164.766 469.717C160.954 472.168 160.738 477.664 164.347 480.406L165.272 481.109C165.896 481.583 166.591 481.954 167.331 482.208L168.515 482.614C174.814 484.775 181.889 482.618 185.36 476.934Z" fill="#00B3FF"/>
<path d="M29.1107 264.694C26.3474 269.201 13.3938 290.508 21.0813 281.511C29.6561 271.475 31.8053 268.481 42.2307 261.3C46.386 258.438 51.6069 255.227 56.3838 252.4C61.5209 249.36 60.6171 241.503 54.6758 242.081C43.3185 243.186 32.5476 259.215 30.1206 263.055C29.7738 263.604 29.45 264.141 29.1107 264.694Z" fill="#00B3FF"/>
<path d="M178.998 43.3259C182.203 45.6075 192.577 53.1005 186.545 50.2522C179.464 46.9087 177.602 45.8058 169.912 44.5218C167.05 44.044 163.564 43.6376 160.315 43.3157C156.621 42.9497 155.253 38.2388 158.784 37.0923C165.524 34.9033 174.373 40.1972 177.195 42.0663C177.811 42.4738 178.397 42.8979 178.998 43.3259Z" fill="#00B3FF"/>
</svg>
