<svg width="374" height="510" viewBox="0 0 374 510" fill="none" xmlns="http://www.w3.org/2000/svg">
<path d="M184.531 350L180.211 179.917M184.531 350L298.089 171.818M184.531 350L66.0363 171.818M184.531 350L16.0462 163.141M184.531 350L365.977 163.141" stroke="black"/>
<path d="M180.211 180.496C130.246 198.635 105.791 196.855 66.6535 171.818C36.7153 179.214 21.5023 166.033 10.7512 159.669C-1.01794 152.703 3.6996 134.416 10.7512 122.697C59.3738 41.8975 122.82 4.31835 187 5.2066C250.251 6.08198 314.232 51.781 363.508 132.327C364.322 133.657 365.132 134.997 365.937 136.346C371.018 144.853 370.705 155.934 363.508 162.744C345.835 179.467 329.067 174.584 297.472 171.818C264.527 196.186 238.745 198.85 180.211 180.496Z" fill="#FAF28F"/>
<path d="M180.211 180.496C130.246 198.635 105.791 196.855 66.6535 171.818M180.211 180.496C238.745 198.85 264.527 196.186 297.472 171.818M180.211 180.496C175.429 110.902 176.465 74.661 187 5.2066M66.6535 171.818C102.469 71.4278 128.277 36.948 187 5.2066M66.6535 171.818C36.7153 179.214 21.5023 166.033 10.7512 159.669V159.669C-1.01794 152.703 3.6996 134.416 10.7512 122.697V122.697C59.3738 41.8975 122.82 4.31835 187 5.2066M297.472 171.818C273.523 87.1954 248.694 53.0151 187 5.2066M297.472 171.818C329.067 174.584 345.835 179.468 363.508 162.744V162.744C370.705 155.934 371.018 144.853 365.937 136.346C365.132 134.997 364.322 133.657 363.508 132.327C314.232 51.781 250.251 6.08198 187 5.2066" stroke="#FFD000" stroke-width="3"/>
<ellipse cx="187" cy="4.6281" rx="20.3663" ry="4.6281" fill="#FFD000"/>
<path d="M39.3758 426.071C86.4202 464.198 118.21 478.375 184.935 490.234C193.005 497.835 195.575 496.268 192.96 486.055C252.316 454.734 283.192 428.842 323.487 375.67C324.087 374.877 325.992 373.947 328.35 372.966C337.108 369.323 342.225 362.631 332.745 362.952C327.736 363.121 322.608 363.479 321.599 362.753C285.529 336.809 259.616 325.022 214.893 316.297C211.242 315.585 207.366 306.335 203.449 305.658C200.382 307.125 197.481 317.133 194.542 318.567C131.19 349.478 96.3871 373.323 47.6047 418.394C30.2212 416.653 27.4134 419.211 39.3758 426.071Z" fill="#EBEBEB" stroke="#FFFBFB"/>
<path d="M196.62 395.958V395.958C198.312 392.55 194.961 388.881 191.11 389.926L189.892 390.257C186.629 391.143 185.084 394.645 186.736 397.409L189.95 402.787C192.857 407.65 188.655 413.59 182.728 412.999V412.999C181.194 412.846 179.755 412.243 178.614 411.276L173.667 407.083C171.109 404.914 171.231 401.107 173.925 399.054L174.945 398.276C176.527 397.071 178.803 397.121 180.305 398.394V398.394C181.909 399.754 182.103 402.054 180.748 403.65L174.809 410.653L154.681 433.282M198.174 390.118L195.917 389.399C191.479 387.986 188.685 383.889 189.174 379.51V379.51C189.594 375.75 192.358 372.57 196.206 371.419L198.156 370.835C202.874 369.424 207.988 371.425 210.248 375.53V375.53C212.59 379.784 211.158 385.064 206.895 387.75V387.75" stroke="#FF0000" stroke-width="4"/>
<path d="M188.655 486.982C190.296 489.671 191.188 491.832 191.973 495.001C194.238 495.179 194.539 493.28 192.972 485.554C254.898 452.027 283.569 427.807 324.3 375.253C336.335 369.268 338.875 366.829 336.554 363.979C332.302 366.083 328.977 367.432 325.108 368.47C319.029 370.1 312.951 371.952 307.557 375.194C254.791 406.904 228 432.321 188.949 480.958C187.567 482.678 187.505 485.099 188.655 486.982Z" fill="#D0CFCF" stroke="#D9D9D9"/>
<path d="M144.257 376.948L145.076 376.262C148.121 373.709 152.717 373.708 155.728 376.26V376.26C159.125 379.14 159.203 384.125 155.898 387.137L151.966 390.722C149.289 393.162 145.062 393.246 142.311 390.913L139.97 388.929C137.423 386.771 138.009 382.875 141.096 381.426V381.426C143.436 381.575 144.607 382.038 146.311 383.894C147.545 385.652 147.933 386.407 148.165 387.418C148.403 389.632 148.164 390.571 147.327 391.912" stroke="#FF0000" stroke-width="4"/>
<path d="M171.537 390.543L171.282 389.793C170.084 386.275 166.493 383.976 162.55 384.203C159.722 384.367 157.149 385.814 155.66 388.079L155.217 388.752C150.638 395.715 158.129 404.071 166.228 401.034C170.66 399.373 172.981 394.786 171.537 390.543Z" stroke="#FF0000" stroke-width="4"/>
</svg>