<svg width="395" height="487" viewBox="0 0 395 487" fill="none" xmlns="http://www.w3.org/2000/svg">
<rect width="66.8849" height="85.5167" transform="matrix(0.999991 -0.00412499 0.00451126 0.99999 177.742 346.104)" fill="#5A86FF"/>
<rect width="72.9392" height="12.976" transform="matrix(0.999991 -0.00412499 0.00451126 0.99999 174.886 342.974)" fill="#78DBFF"/>
<path d="M248.316 345.556C248.316 353.481 231.807 359.905 211.443 359.905C191.079 359.905 174.571 353.481 174.571 345.556C174.571 337.631 191.079 331.207 211.443 331.207C231.807 331.207 248.316 337.631 248.316 345.556Z" fill="#9EE5FF"/>
<path d="M248.316 355.396C248.316 363.321 231.807 369.745 211.443 369.745C191.079 369.745 174.571 363.321 174.571 355.396C174.571 347.471 191.079 341.046 211.443 341.046C231.807 341.046 248.316 347.471 248.316 355.396Z" fill="#78DBFF"/>
<path d="M248.316 345.556C248.316 353.481 231.807 359.905 211.443 359.905C191.079 359.905 174.571 353.481 174.571 345.556C174.571 337.631 191.079 331.207 211.443 331.207C231.807 331.207 248.316 337.631 248.316 345.556Z" fill="#9EE5FF"/>
<path d="M248.316 430.832C248.316 438.757 231.807 445.182 211.443 445.182C191.079 445.182 174.571 438.757 174.571 430.832C174.571 422.907 191.079 416.483 211.443 416.483C231.807 416.483 248.316 422.907 248.316 430.832Z" fill="#9EE5FF"/>
<path d="M248.316 422.633C248.316 430.558 231.807 436.982 211.443 436.982C191.079 436.982 174.571 430.558 174.571 422.633C174.571 414.708 191.079 408.283 211.443 408.283C231.807 408.283 248.316 414.708 248.316 422.633Z" fill="#9EE5FF"/>
<path d="M244.886 416.073C244.886 423.998 229.913 430.422 211.443 430.422C192.973 430.422 178.001 423.998 178.001 416.073C178.001 408.148 192.973 401.724 211.443 401.724C229.913 401.724 244.886 408.148 244.886 416.073Z" fill="#5A86FF"/>
<ellipse cx="211.443" cy="315.217" rx="16.2925" ry="3.68984" fill="#5A86FF"/>
<rect x="195.151" y="314.807" width="32.585" height="9.01962" fill="#5A86FF"/>
<ellipse cx="211.443" cy="315.217" rx="16.2925" ry="3.68984" fill="#4173FD"/>
<ellipse cx="211.443" cy="323.417" rx="16.2925" ry="3.68984" fill="#D9D9D9"/>
<ellipse cx="211.443" cy="325.057" rx="18.865" ry="3.68984" fill="#78DBFF"/>
<ellipse cx="211.443" cy="327.517" rx="18.865" ry="3.68984" fill="#78DBFF"/>
<ellipse cx="16.2925" cy="3.68984" rx="16.2925" ry="3.68984" transform="matrix(1 0 0 -1 195.151 341.046)" fill="#78DBFF"/>
<rect width="32.585" height="9.01962" transform="matrix(1 0 0 -1 195.151 337.766)" fill="#78DBFF"/>
<rect x="192.578" y="325.467" width="37.73" height="1.63993" fill="#78DBFF"/>
<ellipse cx="211.443" cy="323.417" rx="16.2925" ry="3.68984" fill="#5A86FF"/>
<path d="M202.011 390.875C197.016 383.02 190.025 386.328 187.694 390.875C186.428 393.345 186.144 396.791 187.323 399.556M187.323 399.556C188.315 401.881 190.341 403.725 193.687 404.103C201.012 404.93 203.009 399.142 200.346 397.902C195.591 395.583 192.732 396.027 187.323 399.556Z" stroke="#FFFBFB" stroke-width="5"/>
<path d="M210.586 389.014C212.395 388.489 213.659 389.14 216.435 392.294C219.294 399.582 212.136 399.078 209.328 398.94C206.422 397.925 208.137 383.901 216.435 383.691C224.733 383.481 227.406 388.216 227.985 399.765C227.985 399.765 228.873 416.25 229.317 418.311L236.739 417.303" stroke="#FFFBFB" stroke-width="5"/>
<rect width="66.8849" height="85.5167" transform="matrix(0.999991 -0.00412499 0.00451126 0.99999 177.742 346.104)" fill="#5A86FF"/>
<rect width="72.9392" height="12.976" transform="matrix(0.999991 -0.00412499 0.00451126 0.99999 174.886 342.974)" fill="#78DBFF"/>
<path d="M248.316 345.556C248.316 353.481 231.807 359.905 211.443 359.905C191.079 359.905 174.571 353.481 174.571 345.556C174.571 337.631 191.079 331.207 211.443 331.207C231.807 331.207 248.316 337.631 248.316 345.556Z" fill="#9EE5FF"/>
<path d="M248.316 355.396C248.316 363.321 231.807 369.745 211.443 369.745C191.079 369.745 174.571 363.321 174.571 355.396C174.571 347.471 191.079 341.046 211.443 341.046C231.807 341.046 248.316 347.471 248.316 355.396Z" fill="#78DBFF"/>
<path d="M248.316 345.556C248.316 353.481 231.807 359.905 211.443 359.905C191.079 359.905 174.571 353.481 174.571 345.556C174.571 337.631 191.079 331.207 211.443 331.207C231.807 331.207 248.316 337.631 248.316 345.556Z" fill="#9EE5FF"/>
<path d="M248.316 430.832C248.316 438.757 231.807 445.182 211.443 445.182C191.079 445.182 174.571 438.757 174.571 430.832C174.571 422.907 191.079 416.483 211.443 416.483C231.807 416.483 248.316 422.907 248.316 430.832Z" fill="#9EE5FF"/>
<path d="M248.316 422.633C248.316 430.558 231.807 436.982 211.443 436.982C191.079 436.982 174.571 430.558 174.571 422.633C174.571 414.708 191.079 408.283 211.443 408.283C231.807 408.283 248.316 414.708 248.316 422.633Z" fill="#9EE5FF"/>
<path d="M244.886 416.073C244.886 423.998 229.913 430.422 211.443 430.422C192.973 430.422 178.001 423.998 178.001 416.073C178.001 408.148 192.973 401.724 211.443 401.724C229.913 401.724 244.886 408.148 244.886 416.073Z" fill="#5A86FF"/>
<ellipse cx="211.443" cy="315.217" rx="16.2925" ry="3.68984" fill="#5A86FF"/>
<rect x="195.151" y="314.807" width="32.585" height="9.01962" fill="#5A86FF"/>
<ellipse cx="211.443" cy="315.217" rx="16.2925" ry="3.68984" fill="#4173FD"/>
<ellipse cx="211.443" cy="323.417" rx="16.2925" ry="3.68984" fill="#D9D9D9"/>
<ellipse cx="211.443" cy="325.057" rx="18.865" ry="3.68984" fill="#78DBFF"/>
<ellipse cx="211.443" cy="327.517" rx="18.865" ry="3.68984" fill="#78DBFF"/>
<ellipse cx="16.2925" cy="3.68984" rx="16.2925" ry="3.68984" transform="matrix(1 0 0 -1 195.151 341.046)" fill="#78DBFF"/>
<rect width="32.585" height="9.01962" transform="matrix(1 0 0 -1 195.151 337.766)" fill="#78DBFF"/>
<rect x="192.578" y="325.467" width="37.73" height="1.63993" fill="#78DBFF"/>
<ellipse cx="211.443" cy="323.417" rx="16.2925" ry="3.68984" fill="#5A86FF"/>
<path d="M202.011 390.875C197.016 383.02 190.025 386.328 187.694 390.875C186.428 393.345 186.144 396.791 187.323 399.556M187.323 399.556C188.315 401.881 190.341 403.725 193.687 404.103C201.012 404.93 203.009 399.142 200.346 397.902C195.591 395.583 192.732 396.027 187.323 399.556Z" stroke="#FFFBFB" stroke-width="5"/>
<path d="M210.586 389.014C212.395 388.489 213.659 389.14 216.435 392.294C219.294 399.582 212.136 399.078 209.328 398.94C206.422 397.925 208.137 383.901 216.435 383.691C224.733 383.481 227.406 388.216 227.985 399.765C227.985 399.765 228.873 416.25 229.317 418.311L236.739 417.303" stroke="#FFFBFB" stroke-width="5"/>
<rect width="66.8849" height="85.5167" transform="matrix(0.999991 -0.00412499 0.00451126 0.99999 141.727 361.684)" fill="#5A86FF"/>
<rect width="72.9392" height="12.976" transform="matrix(0.999991 -0.00412499 0.00451126 0.99999 138.871 358.553)" fill="#78DBFF"/>
<path d="M212.301 361.135C212.301 369.06 195.792 375.485 175.428 375.485C155.064 375.485 138.556 369.06 138.556 361.135C138.556 353.21 155.064 346.786 175.428 346.786C195.792 346.786 212.301 353.21 212.301 361.135Z" fill="#9EE5FF"/>
<path d="M212.301 370.975C212.301 378.9 195.792 385.324 175.428 385.324C155.064 385.324 138.556 378.9 138.556 370.975C138.556 363.05 155.064 356.625 175.428 356.625C195.792 356.625 212.301 363.05 212.301 370.975Z" fill="#78DBFF"/>
<path d="M212.301 361.135C212.301 369.06 195.792 375.485 175.428 375.485C155.064 375.485 138.556 369.06 138.556 361.135C138.556 353.21 155.064 346.786 175.428 346.786C195.792 346.786 212.301 353.21 212.301 361.135Z" fill="#9EE5FF"/>
<path d="M212.301 446.412C212.301 454.337 195.792 460.761 175.428 460.761C155.064 460.761 138.556 454.337 138.556 446.412C138.556 438.487 155.064 432.062 175.428 432.062C195.792 432.062 212.301 438.487 212.301 446.412Z" fill="#9EE5FF"/>
<path d="M212.301 438.212C212.301 446.137 195.792 452.561 175.428 452.561C155.064 452.561 138.556 446.137 138.556 438.212C138.556 430.287 155.064 423.863 175.428 423.863C195.792 423.863 212.301 430.287 212.301 438.212Z" fill="#9EE5FF"/>
<path d="M208.871 431.652C208.871 439.577 193.898 446.002 175.428 446.002C156.958 446.002 141.986 439.577 141.986 431.652C141.986 423.727 156.958 417.303 175.428 417.303C193.898 417.303 208.871 423.727 208.871 431.652Z" fill="#5A86FF"/>
<ellipse cx="175.428" cy="330.797" rx="16.2925" ry="3.68984" fill="#5A86FF"/>
<rect x="159.136" y="330.387" width="32.585" height="9.01962" fill="#5A86FF"/>
<ellipse cx="175.428" cy="330.797" rx="16.2925" ry="3.68984" fill="#4173FD"/>
<ellipse cx="175.428" cy="338.996" rx="16.2925" ry="3.68984" fill="#D9D9D9"/>
<ellipse cx="175.428" cy="340.636" rx="18.865" ry="3.68984" fill="#78DBFF"/>
<ellipse cx="175.428" cy="343.096" rx="18.865" ry="3.68984" fill="#78DBFF"/>
<ellipse cx="16.2925" cy="3.68984" rx="16.2925" ry="3.68984" transform="matrix(1 0 0 -1 159.136 356.625)" fill="#78DBFF"/>
<rect width="32.585" height="9.01962" transform="matrix(1 0 0 -1 159.136 353.346)" fill="#78DBFF"/>
<rect x="156.563" y="341.046" width="37.73" height="1.63993" fill="#78DBFF"/>
<ellipse cx="175.428" cy="338.996" rx="16.2925" ry="3.68984" fill="#5A86FF"/>
<path d="M165.996 406.454C161.001 398.6 154.01 401.907 151.679 406.454C150.413 408.924 150.129 412.37 151.309 415.135M151.309 415.135C152.3 417.461 154.326 419.305 157.672 419.682C164.997 420.509 166.994 414.722 164.331 413.482C159.576 411.163 156.717 411.606 151.309 415.135Z" stroke="#FFFBFB" stroke-width="5"/>
<path d="M174.571 404.593C176.38 404.068 177.644 404.719 180.42 407.873C183.279 415.162 176.121 414.657 173.313 414.52C170.407 413.504 172.122 399.481 180.42 399.27C188.718 399.06 191.391 403.796 191.97 415.344C191.97 415.344 192.858 431.829 193.302 433.89L200.724 432.882" stroke="#FFFBFB" stroke-width="5"/>
<rect width="66.8849" height="85.5167" transform="matrix(0.999991 -0.00412499 0.00451126 0.99999 141.727 361.684)" fill="#5A86FF"/>
<rect width="72.9392" height="12.976" transform="matrix(0.999991 -0.00412499 0.00451126 0.99999 138.871 358.553)" fill="#78DBFF"/>
<path d="M212.301 361.135C212.301 369.06 195.792 375.485 175.428 375.485C155.064 375.485 138.556 369.06 138.556 361.135C138.556 353.21 155.064 346.786 175.428 346.786C195.792 346.786 212.301 353.21 212.301 361.135Z" fill="#9EE5FF"/>
<path d="M212.301 370.975C212.301 378.9 195.792 385.324 175.428 385.324C155.064 385.324 138.556 378.9 138.556 370.975C138.556 363.05 155.064 356.625 175.428 356.625C195.792 356.625 212.301 363.05 212.301 370.975Z" fill="#78DBFF"/>
<path d="M212.301 361.135C212.301 369.06 195.792 375.485 175.428 375.485C155.064 375.485 138.556 369.06 138.556 361.135C138.556 353.21 155.064 346.786 175.428 346.786C195.792 346.786 212.301 353.21 212.301 361.135Z" fill="#9EE5FF"/>
<path d="M212.301 446.412C212.301 454.337 195.792 460.761 175.428 460.761C155.064 460.761 138.556 454.337 138.556 446.412C138.556 438.487 155.064 432.062 175.428 432.062C195.792 432.062 212.301 438.487 212.301 446.412Z" fill="#9EE5FF"/>
<path d="M212.301 438.212C212.301 446.137 195.792 452.561 175.428 452.561C155.064 452.561 138.556 446.137 138.556 438.212C138.556 430.287 155.064 423.863 175.428 423.863C195.792 423.863 212.301 430.287 212.301 438.212Z" fill="#9EE5FF"/>
<path d="M208.871 431.652C208.871 439.577 193.898 446.002 175.428 446.002C156.958 446.002 141.986 439.577 141.986 431.652C141.986 423.727 156.958 417.303 175.428 417.303C193.898 417.303 208.871 423.727 208.871 431.652Z" fill="#5A86FF"/>
<ellipse cx="175.428" cy="330.797" rx="16.2925" ry="3.68984" fill="#5A86FF"/>
<rect x="159.136" y="330.387" width="32.585" height="9.01962" fill="#5A86FF"/>
<ellipse cx="175.428" cy="330.797" rx="16.2925" ry="3.68984" fill="#4173FD"/>
<ellipse cx="175.428" cy="338.996" rx="16.2925" ry="3.68984" fill="#D9D9D9"/>
<ellipse cx="175.428" cy="340.636" rx="18.865" ry="3.68984" fill="#78DBFF"/>
<ellipse cx="175.428" cy="343.096" rx="18.865" ry="3.68984" fill="#78DBFF"/>
<ellipse cx="16.2925" cy="3.68984" rx="16.2925" ry="3.68984" transform="matrix(1 0 0 -1 159.136 356.625)" fill="#78DBFF"/>
<rect width="32.585" height="9.01962" transform="matrix(1 0 0 -1 159.136 353.346)" fill="#78DBFF"/>
<rect x="156.563" y="341.046" width="37.73" height="1.63993" fill="#78DBFF"/>
<ellipse cx="175.428" cy="338.996" rx="16.2925" ry="3.68984" fill="#5A86FF"/>
<path d="M165.996 406.454C161.001 398.6 154.01 401.907 151.679 406.454C150.413 408.924 150.129 412.37 151.309 415.135M151.309 415.135C152.3 417.461 154.326 419.305 157.672 419.682C164.997 420.509 166.994 414.722 164.331 413.482C159.576 411.163 156.717 411.606 151.309 415.135Z" stroke="#FFFBFB" stroke-width="5"/>
<path d="M174.571 404.593C176.38 404.068 177.644 404.719 180.42 407.873C183.279 415.162 176.121 414.657 173.313 414.52C170.407 413.504 172.122 399.481 180.42 399.27C188.718 399.06 191.391 403.796 191.97 415.344C191.97 415.344 192.858 431.829 193.302 433.89L200.724 432.882" stroke="#FFFBFB" stroke-width="5"/>
<path d="M194.893 384.641L190.33 197.725M194.893 384.641L314.827 188.824M194.893 384.641L69.7442 188.824M194.893 384.641L16.9472 179.287M194.893 384.641L386.526 179.287" stroke="black"/>
<path d="M190.33 198.36C137.559 218.295 111.731 216.339 70.396 188.824C38.7769 196.952 22.7097 182.466 11.3548 175.473C-1.34974 167.648 3.88503 147.758 11.3548 134.841C62.7076 46.0443 129.716 4.74577 197.5 5.72193C264.302 6.68395 331.876 56.906 383.919 145.424C384.799 146.92 385.674 148.427 386.544 149.944C391.906 159.292 391.598 171.291 383.919 178.852C365.254 197.23 347.544 191.863 314.175 188.824C279.38 215.603 252.151 218.531 190.33 198.36Z" fill="#FAF28F"/>
<path d="M190.33 198.36C137.559 218.295 111.731 216.339 70.396 188.824M190.33 198.36C252.151 218.531 279.38 215.603 314.175 188.824M190.33 198.36C185.28 121.878 186.373 82.0506 197.5 5.72193M70.396 188.824C108.222 78.4974 135.48 40.605 197.5 5.72193M70.396 188.824C38.7769 196.952 22.7097 182.466 11.3548 175.473V175.473C-1.34974 167.648 3.88503 147.758 11.3548 134.841V134.841C62.7076 46.0443 129.716 4.74577 197.5 5.72193M314.175 188.824C288.881 95.8255 262.658 58.2622 197.5 5.72193M314.175 188.824C347.544 191.863 365.254 197.23 383.919 178.852V178.852C391.598 171.291 391.906 159.292 386.544 149.944C385.674 148.427 384.799 146.92 383.919 145.424C331.876 56.906 264.302 6.68395 197.5 5.72193" stroke="#FFD000" stroke-width="3"/>
<ellipse cx="197.5" cy="5.08616" rx="21.5099" ry="5.08616" fill="#FFD000"/>
<rect width="66.8849" height="85.5167" transform="matrix(0.999991 -0.00412499 0.00451126 0.99999 104.855 375.623)" fill="#5A86FF"/>
<rect width="72.9392" height="12.976" transform="matrix(0.999991 -0.00412499 0.00451126 0.99999 101.999 372.493)" fill="#78DBFF"/>
<path d="M175.428 375.075C175.428 383 158.92 389.424 138.556 389.424C118.192 389.424 101.683 383 101.683 375.075C101.683 367.15 118.192 360.725 138.556 360.725C158.92 360.725 175.428 367.15 175.428 375.075Z" fill="#9EE5FF"/>
<path d="M175.428 384.914C175.428 392.839 158.92 399.264 138.556 399.264C118.192 399.264 101.683 392.839 101.683 384.914C101.683 376.989 118.192 370.565 138.556 370.565C158.92 370.565 175.428 376.989 175.428 384.914Z" fill="#78DBFF"/>
<path d="M175.428 375.075C175.428 383 158.92 389.424 138.556 389.424C118.192 389.424 101.683 383 101.683 375.075C101.683 367.15 118.192 360.725 138.556 360.725C158.92 360.725 175.428 367.15 175.428 375.075Z" fill="#9EE5FF"/>
<path d="M175.428 460.351C175.428 468.276 158.92 474.7 138.556 474.7C118.192 474.7 101.683 468.276 101.683 460.351C101.683 452.426 118.192 446.002 138.556 446.002C158.92 446.002 175.428 452.426 175.428 460.351Z" fill="#9EE5FF"/>
<path d="M175.428 452.151C175.428 460.076 158.92 466.501 138.556 466.501C118.192 466.501 101.683 460.076 101.683 452.151C101.683 444.227 118.192 437.802 138.556 437.802C158.92 437.802 175.428 444.227 175.428 452.151Z" fill="#9EE5FF"/>
<path d="M171.998 445.592C171.998 453.517 157.025 459.941 138.556 459.941C120.086 459.941 105.113 453.517 105.113 445.592C105.113 437.667 120.086 431.242 138.556 431.242C157.025 431.242 171.998 437.667 171.998 445.592Z" fill="#5A86FF"/>
<ellipse cx="138.556" cy="344.736" rx="16.2925" ry="3.68984" fill="#5A86FF"/>
<rect x="122.263" y="344.326" width="32.585" height="9.01962" fill="#5A86FF"/>
<ellipse cx="138.556" cy="344.736" rx="16.2925" ry="3.68984" fill="#4173FD"/>
<ellipse cx="138.556" cy="352.936" rx="16.2925" ry="3.68984" fill="#D9D9D9"/>
<ellipse cx="138.556" cy="354.576" rx="18.865" ry="3.68984" fill="#78DBFF"/>
<ellipse cx="138.556" cy="357.036" rx="18.865" ry="3.68984" fill="#78DBFF"/>
<ellipse cx="16.2925" cy="3.68984" rx="16.2925" ry="3.68984" transform="matrix(1 0 0 -1 122.263 370.565)" fill="#78DBFF"/>
<rect width="32.585" height="9.01962" transform="matrix(1 0 0 -1 122.263 367.285)" fill="#78DBFF"/>
<rect x="119.691" y="354.986" width="37.73" height="1.63993" fill="#78DBFF"/>
<ellipse cx="138.556" cy="352.936" rx="16.2925" ry="3.68984" fill="#5A86FF"/>
<path d="M129.123 420.394C124.129 412.539 117.137 415.846 114.807 420.394C113.541 422.864 113.257 426.309 114.436 429.075M114.436 429.075C115.428 431.4 117.454 433.244 120.8 433.622C128.124 434.449 130.122 428.661 127.458 427.421C122.703 425.102 119.845 425.545 114.436 429.075Z" stroke="#FFFBFB" stroke-width="5"/>
<path d="M137.698 418.533C139.507 418.007 140.771 418.658 143.548 421.813C146.406 429.101 139.248 428.597 136.441 428.459C133.535 427.443 135.25 413.42 143.548 413.21C151.846 413 154.519 417.735 155.097 429.283C155.097 429.283 155.986 445.769 156.43 447.83L163.852 446.822" stroke="#FFFBFB" stroke-width="5"/>
<rect width="66.8849" height="85.5167" transform="matrix(0.999991 -0.00412499 0.00451126 0.99999 104.855 375.623)" fill="#5A86FF"/>
<rect width="72.9392" height="12.976" transform="matrix(0.999991 -0.00412499 0.00451126 0.99999 101.999 372.493)" fill="#78DBFF"/>
<path d="M175.428 375.075C175.428 383 158.92 389.424 138.556 389.424C118.192 389.424 101.683 383 101.683 375.075C101.683 367.15 118.192 360.725 138.556 360.725C158.92 360.725 175.428 367.15 175.428 375.075Z" fill="#9EE5FF"/>
<path d="M175.428 384.914C175.428 392.839 158.92 399.264 138.556 399.264C118.192 399.264 101.683 392.839 101.683 384.914C101.683 376.989 118.192 370.565 138.556 370.565C158.92 370.565 175.428 376.989 175.428 384.914Z" fill="#78DBFF"/>
<path d="M175.428 375.075C175.428 383 158.92 389.424 138.556 389.424C118.192 389.424 101.683 383 101.683 375.075C101.683 367.15 118.192 360.725 138.556 360.725C158.92 360.725 175.428 367.15 175.428 375.075Z" fill="#9EE5FF"/>
<path d="M175.428 460.351C175.428 468.276 158.92 474.7 138.556 474.7C118.192 474.7 101.683 468.276 101.683 460.351C101.683 452.426 118.192 446.002 138.556 446.002C158.92 446.002 175.428 452.426 175.428 460.351Z" fill="#9EE5FF"/>
<path d="M175.428 452.151C175.428 460.076 158.92 466.501 138.556 466.501C118.192 466.501 101.683 460.076 101.683 452.151C101.683 444.227 118.192 437.802 138.556 437.802C158.92 437.802 175.428 444.227 175.428 452.151Z" fill="#9EE5FF"/>
<path d="M171.998 445.592C171.998 453.517 157.025 459.941 138.556 459.941C120.086 459.941 105.113 453.517 105.113 445.592C105.113 437.667 120.086 431.242 138.556 431.242C157.025 431.242 171.998 437.667 171.998 445.592Z" fill="#5A86FF"/>
<ellipse cx="138.556" cy="344.736" rx="16.2925" ry="3.68984" fill="#5A86FF"/>
<rect x="122.263" y="344.326" width="32.585" height="9.01962" fill="#5A86FF"/>
<ellipse cx="138.556" cy="344.736" rx="16.2925" ry="3.68984" fill="#4173FD"/>
<ellipse cx="138.556" cy="352.936" rx="16.2925" ry="3.68984" fill="#D9D9D9"/>
<ellipse cx="138.556" cy="354.576" rx="18.865" ry="3.68984" fill="#78DBFF"/>
<ellipse cx="138.556" cy="357.036" rx="18.865" ry="3.68984" fill="#78DBFF"/>
<ellipse cx="16.2925" cy="3.68984" rx="16.2925" ry="3.68984" transform="matrix(1 0 0 -1 122.263 370.565)" fill="#78DBFF"/>
<rect width="32.585" height="9.01962" transform="matrix(1 0 0 -1 122.263 367.285)" fill="#78DBFF"/>
<rect x="119.691" y="354.986" width="37.73" height="1.63993" fill="#78DBFF"/>
<ellipse cx="138.556" cy="352.936" rx="16.2925" ry="3.68984" fill="#5A86FF"/>
<path d="M129.123 420.394C124.129 412.539 117.137 415.846 114.807 420.394C113.541 422.864 113.257 426.309 114.436 429.075M114.436 429.075C115.428 431.4 117.454 433.244 120.8 433.622C128.124 434.449 130.122 428.661 127.458 427.421C122.703 425.102 119.845 425.545 114.436 429.075Z" stroke="#FFFBFB" stroke-width="5"/>
<path d="M137.698 418.533C139.507 418.007 140.771 418.658 143.548 421.813C146.406 429.101 139.248 428.597 136.441 428.459C133.535 427.443 135.25 413.42 143.548 413.21C151.846 413 154.519 417.735 155.097 429.283C155.097 429.283 155.986 445.769 156.43 447.83L163.852 446.822" stroke="#FFFBFB" stroke-width="5"/>
<rect width="66.8849" height="85.5167" transform="matrix(0.999991 -0.00412499 0.00451126 0.99999 224.047 358.404)" fill="#5A86FF"/>
<rect width="72.9392" height="12.976" transform="matrix(0.999991 -0.00412499 0.00451126 0.99999 221.191 355.274)" fill="#78DBFF"/>
<path d="M294.621 357.855C294.621 365.78 278.112 372.205 257.748 372.205C237.384 372.205 220.876 365.78 220.876 357.855C220.876 349.93 237.384 343.506 257.748 343.506C278.112 343.506 294.621 349.93 294.621 357.855Z" fill="#9EE5FF"/>
<path d="M294.621 367.695C294.621 375.62 278.112 382.044 257.748 382.044C237.384 382.044 220.876 375.62 220.876 367.695C220.876 359.77 237.384 353.346 257.748 353.346C278.112 353.346 294.621 359.77 294.621 367.695Z" fill="#78DBFF"/>
<path d="M294.621 357.855C294.621 365.78 278.112 372.205 257.748 372.205C237.384 372.205 220.876 365.78 220.876 357.855C220.876 349.93 237.384 343.506 257.748 343.506C278.112 343.506 294.621 349.93 294.621 357.855Z" fill="#9EE5FF"/>
<path d="M294.621 443.132C294.621 451.057 278.112 457.481 257.748 457.481C237.384 457.481 220.876 451.057 220.876 443.132C220.876 435.207 237.384 428.782 257.748 428.782C278.112 428.782 294.621 435.207 294.621 443.132Z" fill="#9EE5FF"/>
<path d="M294.621 434.932C294.621 442.857 278.112 449.282 257.748 449.282C237.384 449.282 220.876 442.857 220.876 434.932C220.876 427.007 237.384 420.583 257.748 420.583C278.112 420.583 294.621 427.007 294.621 434.932Z" fill="#9EE5FF"/>
<path d="M291.191 428.372C291.191 436.297 276.218 442.722 257.748 442.722C239.278 442.722 224.306 436.297 224.306 428.372C224.306 420.448 239.278 414.023 257.748 414.023C276.218 414.023 291.191 420.448 291.191 428.372Z" fill="#5A86FF"/>
<ellipse cx="257.748" cy="327.517" rx="16.2925" ry="3.68984" fill="#5A86FF"/>
<rect x="241.456" y="327.107" width="32.585" height="9.01962" fill="#5A86FF"/>
<ellipse cx="257.748" cy="327.517" rx="16.2925" ry="3.68984" fill="#4173FD"/>
<ellipse cx="257.748" cy="335.716" rx="16.2925" ry="3.68984" fill="#D9D9D9"/>
<ellipse cx="257.748" cy="337.356" rx="18.865" ry="3.68984" fill="#78DBFF"/>
<ellipse cx="257.748" cy="339.816" rx="18.865" ry="3.68984" fill="#78DBFF"/>
<ellipse cx="16.2925" cy="3.68984" rx="16.2925" ry="3.68984" transform="matrix(1 0 0 -1 241.456 353.346)" fill="#78DBFF"/>
<rect width="32.585" height="9.01962" transform="matrix(1 0 0 -1 241.456 350.066)" fill="#78DBFF"/>
<rect x="238.883" y="337.766" width="37.73" height="1.63993" fill="#78DBFF"/>
<ellipse cx="257.748" cy="335.716" rx="16.2925" ry="3.68984" fill="#5A86FF"/>
<path d="M248.316 403.174C243.321 395.32 236.33 398.627 233.999 403.174C232.733 405.644 232.449 409.09 233.628 411.855M233.628 411.855C234.62 414.181 236.646 416.025 239.992 416.403C247.317 417.229 249.314 411.442 246.651 410.202C241.896 407.883 239.037 408.326 233.628 411.855Z" stroke="#FFFBFB" stroke-width="5"/>
<path d="M256.891 401.314C258.7 400.788 259.964 401.439 262.74 404.593C265.599 411.882 258.441 411.377 255.633 411.24C252.727 410.224 254.442 396.201 262.74 395.991C271.038 395.78 273.711 400.516 274.29 412.064C274.29 412.064 275.178 428.55 275.622 430.61L283.044 429.602" stroke="#FFFBFB" stroke-width="5"/>
<rect width="66.8849" height="85.5167" transform="matrix(0.999991 -0.00412499 0.00451126 0.99999 224.047 358.404)" fill="#5A86FF"/>
<rect width="72.9392" height="12.976" transform="matrix(0.999991 -0.00412499 0.00451126 0.99999 221.191 355.274)" fill="#78DBFF"/>
<path d="M294.621 357.855C294.621 365.78 278.112 372.205 257.748 372.205C237.384 372.205 220.876 365.78 220.876 357.855C220.876 349.93 237.384 343.506 257.748 343.506C278.112 343.506 294.621 349.93 294.621 357.855Z" fill="#9EE5FF"/>
<path d="M294.621 367.695C294.621 375.62 278.112 382.044 257.748 382.044C237.384 382.044 220.876 375.62 220.876 367.695C220.876 359.77 237.384 353.346 257.748 353.346C278.112 353.346 294.621 359.77 294.621 367.695Z" fill="#78DBFF"/>
<path d="M294.621 357.855C294.621 365.78 278.112 372.205 257.748 372.205C237.384 372.205 220.876 365.78 220.876 357.855C220.876 349.93 237.384 343.506 257.748 343.506C278.112 343.506 294.621 349.93 294.621 357.855Z" fill="#9EE5FF"/>
<path d="M294.621 443.132C294.621 451.057 278.112 457.481 257.748 457.481C237.384 457.481 220.876 451.057 220.876 443.132C220.876 435.207 237.384 428.782 257.748 428.782C278.112 428.782 294.621 435.207 294.621 443.132Z" fill="#9EE5FF"/>
<path d="M294.621 434.932C294.621 442.857 278.112 449.282 257.748 449.282C237.384 449.282 220.876 442.857 220.876 434.932C220.876 427.007 237.384 420.583 257.748 420.583C278.112 420.583 294.621 427.007 294.621 434.932Z" fill="#9EE5FF"/>
<path d="M291.191 428.372C291.191 436.297 276.218 442.722 257.748 442.722C239.278 442.722 224.306 436.297 224.306 428.372C224.306 420.448 239.278 414.023 257.748 414.023C276.218 414.023 291.191 420.448 291.191 428.372Z" fill="#5A86FF"/>
<ellipse cx="257.748" cy="327.517" rx="16.2925" ry="3.68984" fill="#5A86FF"/>
<rect x="241.456" y="327.107" width="32.585" height="9.01962" fill="#5A86FF"/>
<ellipse cx="257.748" cy="327.517" rx="16.2925" ry="3.68984" fill="#4173FD"/>
<ellipse cx="257.748" cy="335.716" rx="16.2925" ry="3.68984" fill="#D9D9D9"/>
<ellipse cx="257.748" cy="337.356" rx="18.865" ry="3.68984" fill="#78DBFF"/>
<ellipse cx="257.748" cy="339.816" rx="18.865" ry="3.68984" fill="#78DBFF"/>
<ellipse cx="16.2925" cy="3.68984" rx="16.2925" ry="3.68984" transform="matrix(1 0 0 -1 241.456 353.346)" fill="#78DBFF"/>
<rect width="32.585" height="9.01962" transform="matrix(1 0 0 -1 241.456 350.066)" fill="#78DBFF"/>
<rect x="238.883" y="337.766" width="37.73" height="1.63993" fill="#78DBFF"/>
<ellipse cx="257.748" cy="335.716" rx="16.2925" ry="3.68984" fill="#5A86FF"/>
<path d="M248.316 403.174C243.321 395.32 236.33 398.627 233.999 403.174C232.733 405.644 232.449 409.09 233.628 411.855M233.628 411.855C234.62 414.181 236.646 416.025 239.992 416.403C247.317 417.229 249.314 411.442 246.651 410.202C241.896 407.883 239.037 408.326 233.628 411.855Z" stroke="#FFFBFB" stroke-width="5"/>
<path d="M256.891 401.314C258.7 400.788 259.964 401.439 262.74 404.593C265.599 411.882 258.441 411.377 255.633 411.24C252.727 410.224 254.442 396.201 262.74 395.991C271.038 395.78 273.711 400.516 274.29 412.064C274.29 412.064 275.178 428.55 275.622 430.61L283.044 429.602" stroke="#FFFBFB" stroke-width="5"/>
<rect width="66.8849" height="85.5167" transform="matrix(0.999991 -0.00412499 0.00451126 0.99999 188.032 373.983)" fill="#5A86FF"/>
<rect width="72.9392" height="12.976" transform="matrix(0.999991 -0.00412499 0.00451126 0.99999 185.176 370.853)" fill="#78DBFF"/>
<path d="M258.606 373.435C258.606 381.36 242.097 387.784 221.733 387.784C201.369 387.784 184.861 381.36 184.861 373.435C184.861 365.51 201.369 359.085 221.733 359.085C242.097 359.085 258.606 365.51 258.606 373.435Z" fill="#9EE5FF"/>
<path d="M258.606 383.274C258.606 391.199 242.097 397.624 221.733 397.624C201.369 397.624 184.861 391.199 184.861 383.274C184.861 375.349 201.369 368.925 221.733 368.925C242.097 368.925 258.606 375.349 258.606 383.274Z" fill="#78DBFF"/>
<path d="M258.606 373.435C258.606 381.36 242.097 387.784 221.733 387.784C201.369 387.784 184.861 381.36 184.861 373.435C184.861 365.51 201.369 359.085 221.733 359.085C242.097 359.085 258.606 365.51 258.606 373.435Z" fill="#9EE5FF"/>
<path d="M258.606 458.711C258.606 466.636 242.097 473.061 221.733 473.061C201.369 473.061 184.861 466.636 184.861 458.711C184.861 450.786 201.369 444.362 221.733 444.362C242.097 444.362 258.606 450.786 258.606 458.711Z" fill="#9EE5FF"/>
<path d="M258.606 450.512C258.606 458.437 242.097 464.861 221.733 464.861C201.369 464.861 184.861 458.437 184.861 450.512C184.861 442.587 201.369 436.162 221.733 436.162C242.097 436.162 258.606 442.587 258.606 450.512Z" fill="#9EE5FF"/>
<path d="M255.176 443.952C255.176 451.877 240.203 458.301 221.733 458.301C203.263 458.301 188.291 451.877 188.291 443.952C188.291 436.027 203.263 429.602 221.733 429.602C240.203 429.602 255.176 436.027 255.176 443.952Z" fill="#5A86FF"/>
<ellipse cx="221.733" cy="343.096" rx="16.2925" ry="3.68984" fill="#5A86FF"/>
<rect x="205.441" y="342.686" width="32.585" height="9.01962" fill="#5A86FF"/>
<ellipse cx="221.733" cy="343.096" rx="16.2925" ry="3.68984" fill="#4173FD"/>
<ellipse cx="221.733" cy="351.296" rx="16.2925" ry="3.68984" fill="#D9D9D9"/>
<ellipse cx="221.733" cy="352.936" rx="18.865" ry="3.68984" fill="#78DBFF"/>
<ellipse cx="221.733" cy="355.396" rx="18.865" ry="3.68984" fill="#78DBFF"/>
<ellipse cx="16.2925" cy="3.68984" rx="16.2925" ry="3.68984" transform="matrix(1 0 0 -1 205.441 368.925)" fill="#78DBFF"/>
<rect width="32.585" height="9.01962" transform="matrix(1 0 0 -1 205.441 365.645)" fill="#78DBFF"/>
<rect x="202.868" y="353.346" width="37.73" height="1.63993" fill="#78DBFF"/>
<ellipse cx="221.733" cy="351.296" rx="16.2925" ry="3.68984" fill="#5A86FF"/>
<path d="M212.301 418.754C207.306 410.899 200.315 414.206 197.984 418.754C196.718 421.224 196.434 424.669 197.613 427.435M197.613 427.435C198.605 429.76 200.631 431.604 203.977 431.982C211.302 432.809 213.299 427.021 210.636 425.781C205.881 423.462 203.022 423.905 197.613 427.435Z" stroke="#FFFBFB" stroke-width="5"/>
<path d="M220.876 416.893C222.685 416.368 223.949 417.018 226.725 420.173C229.584 427.461 222.426 426.957 219.618 426.819C216.712 425.803 218.427 411.78 226.725 411.57C235.023 411.36 237.696 416.095 238.275 427.643C238.275 427.643 239.163 444.129 239.607 446.19L247.029 445.182" stroke="#FFFBFB" stroke-width="5"/>
<rect width="66.8849" height="85.5167" transform="matrix(0.999991 -0.00412499 0.00451126 0.99999 188.032 373.983)" fill="#5A86FF"/>
<rect width="72.9392" height="12.976" transform="matrix(0.999991 -0.00412499 0.00451126 0.99999 185.176 370.853)" fill="#78DBFF"/>
<path d="M258.606 373.435C258.606 381.36 242.097 387.784 221.733 387.784C201.369 387.784 184.861 381.36 184.861 373.435C184.861 365.51 201.369 359.085 221.733 359.085C242.097 359.085 258.606 365.51 258.606 373.435Z" fill="#9EE5FF"/>
<path d="M258.606 383.274C258.606 391.199 242.097 397.624 221.733 397.624C201.369 397.624 184.861 391.199 184.861 383.274C184.861 375.349 201.369 368.925 221.733 368.925C242.097 368.925 258.606 375.349 258.606 383.274Z" fill="#78DBFF"/>
<path d="M258.606 373.435C258.606 381.36 242.097 387.784 221.733 387.784C201.369 387.784 184.861 381.36 184.861 373.435C184.861 365.51 201.369 359.085 221.733 359.085C242.097 359.085 258.606 365.51 258.606 373.435Z" fill="#9EE5FF"/>
<path d="M258.606 458.711C258.606 466.636 242.097 473.061 221.733 473.061C201.369 473.061 184.861 466.636 184.861 458.711C184.861 450.786 201.369 444.362 221.733 444.362C242.097 444.362 258.606 450.786 258.606 458.711Z" fill="#9EE5FF"/>
<path d="M258.606 450.512C258.606 458.437 242.097 464.861 221.733 464.861C201.369 464.861 184.861 458.437 184.861 450.512C184.861 442.587 201.369 436.162 221.733 436.162C242.097 436.162 258.606 442.587 258.606 450.512Z" fill="#9EE5FF"/>
<path d="M255.176 443.952C255.176 451.877 240.203 458.301 221.733 458.301C203.263 458.301 188.291 451.877 188.291 443.952C188.291 436.027 203.263 429.602 221.733 429.602C240.203 429.602 255.176 436.027 255.176 443.952Z" fill="#5A86FF"/>
<ellipse cx="221.733" cy="343.096" rx="16.2925" ry="3.68984" fill="#5A86FF"/>
<rect x="205.441" y="342.686" width="32.585" height="9.01962" fill="#5A86FF"/>
<ellipse cx="221.733" cy="343.096" rx="16.2925" ry="3.68984" fill="#4173FD"/>
<ellipse cx="221.733" cy="351.296" rx="16.2925" ry="3.68984" fill="#D9D9D9"/>
<ellipse cx="221.733" cy="352.936" rx="18.865" ry="3.68984" fill="#78DBFF"/>
<ellipse cx="221.733" cy="355.396" rx="18.865" ry="3.68984" fill="#78DBFF"/>
<ellipse cx="16.2925" cy="3.68984" rx="16.2925" ry="3.68984" transform="matrix(1 0 0 -1 205.441 368.925)" fill="#78DBFF"/>
<rect width="32.585" height="9.01962" transform="matrix(1 0 0 -1 205.441 365.645)" fill="#78DBFF"/>
<rect x="202.868" y="353.346" width="37.73" height="1.63993" fill="#78DBFF"/>
<ellipse cx="221.733" cy="351.296" rx="16.2925" ry="3.68984" fill="#5A86FF"/>
<path d="M212.301 418.754C207.306 410.899 200.315 414.206 197.984 418.754C196.718 421.224 196.434 424.669 197.613 427.435M197.613 427.435C198.605 429.76 200.631 431.604 203.977 431.982C211.302 432.809 213.299 427.021 210.636 425.781C205.881 423.462 203.022 423.905 197.613 427.435Z" stroke="#FFFBFB" stroke-width="5"/>
<path d="M220.876 416.893C222.685 416.368 223.949 417.018 226.725 420.173C229.584 427.461 222.426 426.957 219.618 426.819C216.712 425.803 218.427 411.78 226.725 411.57C235.023 411.36 237.696 416.095 238.275 427.643C238.275 427.643 239.163 444.129 239.607 446.19L247.029 445.182" stroke="#FFFBFB" stroke-width="5"/>
<rect width="66.8849" height="85.5167" transform="matrix(0.999991 -0.00412499 0.00451126 0.99999 151.16 387.923)" fill="#5A86FF"/>
<rect width="72.9392" height="12.976" transform="matrix(0.999991 -0.00412499 0.00451126 0.99999 148.304 384.792)" fill="#78DBFF"/>
<path d="M221.733 387.374C221.733 395.299 205.225 401.724 184.861 401.724C164.497 401.724 147.988 395.299 147.988 387.374C147.988 379.449 164.497 373.025 184.861 373.025C205.225 373.025 221.733 379.449 221.733 387.374Z" fill="#9EE5FF"/>
<path d="M221.733 397.214C221.733 405.139 205.225 411.563 184.861 411.563C164.497 411.563 147.988 405.139 147.988 397.214C147.988 389.289 164.497 382.864 184.861 382.864C205.225 382.864 221.733 389.289 221.733 397.214Z" fill="#78DBFF"/>
<path d="M221.733 387.374C221.733 395.299 205.225 401.724 184.861 401.724C164.497 401.724 147.988 395.299 147.988 387.374C147.988 379.449 164.497 373.025 184.861 373.025C205.225 373.025 221.733 379.449 221.733 387.374Z" fill="#9EE5FF"/>
<path d="M221.733 472.651C221.733 480.576 205.225 487 184.861 487C164.497 487 147.988 480.576 147.988 472.651C147.988 464.726 164.497 458.301 184.861 458.301C205.225 458.301 221.733 464.726 221.733 472.651Z" fill="#9EE5FF"/>
<path d="M221.733 464.451C221.733 472.376 205.225 478.8 184.861 478.8C164.497 478.8 147.988 472.376 147.988 464.451C147.988 456.526 164.497 450.102 184.861 450.102C205.225 450.102 221.733 456.526 221.733 464.451Z" fill="#9EE5FF"/>
<path d="M218.303 457.891C218.303 465.816 203.33 472.241 184.861 472.241C166.391 472.241 151.418 465.816 151.418 457.891C151.418 449.966 166.391 443.542 184.861 443.542C203.33 443.542 218.303 449.966 218.303 457.891Z" fill="#5A86FF"/>
<ellipse cx="184.861" cy="357.035" rx="16.2925" ry="3.68984" fill="#5A86FF"/>
<rect x="168.568" y="356.625" width="32.585" height="9.01962" fill="#5A86FF"/>
<ellipse cx="184.861" cy="357.035" rx="16.2925" ry="3.68984" fill="#4173FD"/>
<ellipse cx="184.861" cy="365.235" rx="16.2925" ry="3.68984" fill="#D9D9D9"/>
<ellipse cx="184.861" cy="366.875" rx="18.865" ry="3.68984" fill="#78DBFF"/>
<ellipse cx="184.861" cy="369.335" rx="18.865" ry="3.68984" fill="#78DBFF"/>
<ellipse cx="16.2925" cy="3.68984" rx="16.2925" ry="3.68984" transform="matrix(1 0 0 -1 168.568 382.864)" fill="#78DBFF"/>
<rect width="32.585" height="9.01962" transform="matrix(1 0 0 -1 168.568 379.585)" fill="#78DBFF"/>
<rect x="165.996" y="367.285" width="37.73" height="1.63993" fill="#78DBFF"/>
<ellipse cx="184.861" cy="365.235" rx="16.2925" ry="3.68984" fill="#5A86FF"/>
<path d="M175.428 432.693C170.434 424.839 163.442 428.146 161.112 432.693C159.846 435.163 159.562 438.609 160.741 441.374M160.741 441.374C161.733 443.7 163.759 445.544 167.105 445.921C174.429 446.748 176.427 440.961 173.763 439.721C169.008 437.402 166.15 437.845 160.741 441.374Z" stroke="#FFFBFB" stroke-width="5"/>
<path d="M184.003 430.832C185.812 430.307 187.076 430.958 189.853 434.112C192.711 441.401 185.553 440.896 182.746 440.758C179.84 439.743 181.555 425.719 189.853 425.509C198.151 425.299 200.824 430.035 201.402 441.583C201.402 441.583 202.291 458.068 202.735 460.129L210.157 459.121" stroke="#FFFBFB" stroke-width="5"/>
<rect width="66.8849" height="85.5167" transform="matrix(0.999991 -0.00412499 0.00451126 0.99999 151.16 387.923)" fill="#5A86FF"/>
<rect width="72.9392" height="12.976" transform="matrix(0.999991 -0.00412499 0.00451126 0.99999 148.304 384.792)" fill="#78DBFF"/>
<path d="M221.733 387.374C221.733 395.299 205.225 401.724 184.861 401.724C164.497 401.724 147.988 395.299 147.988 387.374C147.988 379.449 164.497 373.025 184.861 373.025C205.225 373.025 221.733 379.449 221.733 387.374Z" fill="#9EE5FF"/>
<path d="M221.733 397.214C221.733 405.139 205.225 411.563 184.861 411.563C164.497 411.563 147.988 405.139 147.988 397.214C147.988 389.289 164.497 382.864 184.861 382.864C205.225 382.864 221.733 389.289 221.733 397.214Z" fill="#78DBFF"/>
<path d="M221.733 387.374C221.733 395.299 205.225 401.724 184.861 401.724C164.497 401.724 147.988 395.299 147.988 387.374C147.988 379.449 164.497 373.025 184.861 373.025C205.225 373.025 221.733 379.449 221.733 387.374Z" fill="#9EE5FF"/>
<path d="M221.733 472.651C221.733 480.576 205.225 487 184.861 487C164.497 487 147.988 480.576 147.988 472.651C147.988 464.726 164.497 458.301 184.861 458.301C205.225 458.301 221.733 464.726 221.733 472.651Z" fill="#9EE5FF"/>
<path d="M221.733 464.451C221.733 472.376 205.225 478.8 184.861 478.8C164.497 478.8 147.988 472.376 147.988 464.451C147.988 456.526 164.497 450.102 184.861 450.102C205.225 450.102 221.733 456.526 221.733 464.451Z" fill="#9EE5FF"/>
<path d="M218.303 457.891C218.303 465.816 203.33 472.241 184.861 472.241C166.391 472.241 151.418 465.816 151.418 457.891C151.418 449.966 166.391 443.542 184.861 443.542C203.33 443.542 218.303 449.966 218.303 457.891Z" fill="#5A86FF"/>
<ellipse cx="184.861" cy="357.035" rx="16.2925" ry="3.68984" fill="#5A86FF"/>
<rect x="168.568" y="356.625" width="32.585" height="9.01962" fill="#5A86FF"/>
<ellipse cx="184.861" cy="357.035" rx="16.2925" ry="3.68984" fill="#4173FD"/>
<ellipse cx="184.861" cy="365.235" rx="16.2925" ry="3.68984" fill="#D9D9D9"/>
<ellipse cx="184.861" cy="366.875" rx="18.865" ry="3.68984" fill="#78DBFF"/>
<ellipse cx="184.861" cy="369.335" rx="18.865" ry="3.68984" fill="#78DBFF"/>
<ellipse cx="16.2925" cy="3.68984" rx="16.2925" ry="3.68984" transform="matrix(1 0 0 -1 168.568 382.864)" fill="#78DBFF"/>
<rect width="32.585" height="9.01962" transform="matrix(1 0 0 -1 168.568 379.585)" fill="#78DBFF"/>
<rect x="165.996" y="367.285" width="37.73" height="1.63993" fill="#78DBFF"/>
<ellipse cx="184.861" cy="365.235" rx="16.2925" ry="3.68984" fill="#5A86FF"/>
<path d="M175.428 432.693C170.434 424.839 163.442 428.146 161.112 432.693C159.846 435.163 159.562 438.609 160.741 441.374M160.741 441.374C161.733 443.7 163.759 445.544 167.105 445.921C174.429 446.748 176.427 440.961 173.763 439.721C169.008 437.402 166.15 437.845 160.741 441.374Z" stroke="#FFFBFB" stroke-width="5"/>
<path d="M184.003 430.832C185.812 430.307 187.076 430.958 189.853 434.112C192.711 441.401 185.553 440.896 182.746 440.758C179.84 439.743 181.555 425.719 189.853 425.509C198.151 425.299 200.824 430.035 201.402 441.583C201.402 441.583 202.291 458.068 202.735 460.129L210.157 459.121" stroke="#FFFBFB" stroke-width="5"/>
</svg>